<svg xmlns="http://www.w3.org/2000/svg" xmlns:xlink="http://www.w3.org/1999/xlink" width="345" zoomAndPan="magnify" viewBox="0 0 258.75 258.749997" height="345" preserveAspectRatio="xMidYMid meet" version="1.0"><defs><g/><clipPath id="d707cb4264"><path d="M 0 0 L 257.75 0 L 257.75 257.75 L 0 257.75 Z M 0 0 " clip-rule="nonzero"/></clipPath><clipPath id="bd62504ea2"><path d="M 128.875 257.75 C 94.46875 257.75 62.070312 244.359375 37.757812 219.996094 C 13.390625 195.683594 0 163.285156 0 128.875 C 0 94.46875 13.390625 62.070312 37.757812 37.757812 C 62.070312 13.390625 94.46875 0 128.875 0 C 163.285156 0 195.683594 13.390625 219.996094 37.757812 C 244.359375 62.121094 257.75 94.46875 257.75 128.875 C 257.75 163.285156 244.359375 195.683594 219.996094 219.996094 C 195.683594 244.359375 163.285156 257.75 128.875 257.75 Z M 128.875 7.726562 C 96.527344 7.726562 66.085938 20.347656 43.214844 43.214844 C 20.347656 66.085938 7.726562 96.527344 7.726562 128.875 C 7.726562 161.222656 20.347656 191.664062 43.214844 214.535156 C 66.085938 237.40625 96.527344 250.023438 128.875 250.023438 C 161.222656 250.023438 191.664062 237.40625 214.535156 214.535156 C 237.40625 191.664062 250.023438 161.222656 250.023438 128.875 C 250.023438 96.527344 237.40625 66.085938 214.535156 43.214844 C 191.664062 20.347656 161.222656 7.726562 128.875 7.726562 Z M 128.875 7.726562 " clip-rule="nonzero"/></clipPath><clipPath id="afd496aaaf"><path d="M 21.605469 86.832031 L 235.898438 86.832031 L 235.898438 178.246094 L 21.605469 178.246094 Z M 21.605469 86.832031 " clip-rule="nonzero"/></clipPath><clipPath id="87d78ed9a6"><path d="M 37.929688 37.929688 L 220.003906 37.929688 L 220.003906 220.003906 L 37.929688 220.003906 Z M 37.929688 37.929688 " clip-rule="nonzero"/></clipPath></defs><g clip-path="url(#d707cb4264)"><g clip-path="url(#bd62504ea2)"><path fill="#112241" d="M 0 0 L 257.75 0 L 257.75 257.75 L 0 257.75 Z M 0 0 " fill-opacity="1" fill-rule="nonzero"/></g></g><g clip-path="url(#afd496aaaf)"><path fill="#112241" d="M 229.507812 157.476562 C 226.785156 166.734375 222.632812 175.519531 217.480469 183.613281 C 213.226562 190.195312 208.386719 196.382812 202.953125 202.011719 C 202.25 202.78125 201.464844 203.46875 200.71875 204.195312 C 199.957031 204.910156 199.222656 205.644531 198.445312 206.339844 L 196.089844 208.390625 L 194.910156 209.414062 L 193.6875 210.386719 L 191.25 212.335938 C 190.421875 212.96875 189.570312 213.566406 188.730469 214.1875 C 187.078125 215.453125 185.316406 216.566406 183.589844 217.738281 C 183.34375 217.90625 183.082031 218.082031 182.808594 218.265625 C 182.527344 218.433594 182.238281 218.609375 181.933594 218.792969 C 181.324219 219.15625 180.667969 219.546875 179.972656 219.964844 C 178.59375 220.828125 176.964844 221.644531 175.207031 222.578125 C 174.761719 222.808594 174.320312 223.054688 173.851562 223.28125 C 173.382812 223.5 172.902344 223.722656 172.414062 223.949219 C 171.433594 224.398438 170.421875 224.867188 169.375 225.351562 C 167.234375 226.191406 164.996094 227.195312 162.558594 227.976562 C 152.9375 231.464844 140.925781 233.621094 128.875 233.671875 C 116.820312 233.621094 104.8125 231.464844 95.1875 227.976562 C 92.75 227.195312 90.515625 226.191406 88.371094 225.351562 C 87.328125 224.867188 86.3125 224.398438 85.335938 223.949219 C 84.847656 223.722656 84.367188 223.5 83.898438 223.28125 C 83.429688 223.058594 82.984375 222.808594 82.542969 222.578125 C 80.785156 221.644531 79.152344 220.828125 77.777344 219.964844 C 77.078125 219.546875 76.425781 219.15625 75.816406 218.792969 C 75.511719 218.609375 75.21875 218.433594 74.941406 218.265625 C 74.667969 218.082031 74.40625 217.90625 74.15625 217.738281 C 67.609375 213.449219 61.457031 208.574219 55.867188 203.101562 C 49.96875 197.207031 44.816406 190.609375 40.269531 183.613281 C 35.113281 175.519531 30.960938 166.734375 28.242188 157.476562 C 25.410156 148.246094 24.101562 138.5625 24.015625 128.875 C 24.101562 119.1875 25.410156 109.5 28.242188 100.273438 C 30.960938 91.011719 35.113281 82.226562 40.265625 74.136719 C 44.523438 67.550781 49.359375 61.363281 54.796875 55.734375 C 55.5 54.964844 56.285156 54.277344 57.03125 53.550781 C 57.789062 52.839844 58.527344 52.101562 59.300781 51.40625 L 61.65625 49.359375 L 62.835938 48.332031 L 64.058594 47.359375 L 66.5 45.410156 C 67.328125 44.777344 68.179688 44.179688 69.015625 43.5625 C 70.671875 42.296875 72.433594 41.179688 74.15625 40.007812 C 74.40625 39.839844 74.667969 39.667969 74.9375 39.484375 C 75.21875 39.316406 75.511719 39.140625 75.816406 38.957031 C 76.425781 38.59375 77.078125 38.199219 77.777344 37.785156 C 79.152344 36.917969 80.785156 36.105469 82.542969 35.167969 C 82.984375 34.941406 83.429688 34.691406 83.898438 34.46875 C 84.367188 34.25 84.847656 34.027344 85.335938 33.800781 C 86.3125 33.347656 87.328125 32.878906 88.371094 32.398438 C 90.515625 31.558594 92.75 30.554688 95.1875 29.773438 C 104.8125 26.28125 116.820312 24.125 128.875 24.074219 C 140.925781 24.125 152.9375 26.28125 162.558594 29.773438 C 164.996094 30.554688 167.230469 31.558594 169.375 32.398438 C 170.421875 32.878906 171.433594 33.347656 172.410156 33.800781 C 172.902344 34.027344 173.382812 34.25 173.851562 34.46875 C 174.320312 34.691406 174.761719 34.941406 175.203125 35.167969 C 176.964844 36.105469 178.59375 36.917969 179.972656 37.785156 C 180.667969 38.199219 181.324219 38.59375 181.929688 38.957031 C 182.234375 39.136719 182.527344 39.3125 182.808594 39.484375 C 183.082031 39.664062 183.34375 39.839844 183.589844 40.007812 C 190.136719 44.296875 196.289062 49.171875 201.878906 54.648438 C 207.777344 60.539062 212.933594 67.136719 217.480469 74.136719 C 222.632812 82.226562 226.785156 91.011719 229.507812 100.273438 C 232.339844 109.5 233.648438 119.1875 233.730469 128.875 C 233.648438 138.5625 232.339844 148.246094 229.507812 157.476562 Z M 236.140625 128.804688 L 236.140625 128.792969 C 236.050781 118.902344 234.722656 109.007812 231.839844 99.570312 C 229.070312 90.105469 224.824219 81.121094 219.535156 72.867188 L 216.988281 69.042969 C 216.988281 69.042969 216.253906 68.015625 215.152344 66.472656 C 214.089844 64.898438 212.464844 62.960938 210.914062 60.964844 C 209.242188 59.070312 207.636719 57.117188 206.289062 55.78125 C 204.980469 54.414062 204.105469 53.503906 204.105469 53.503906 C 204.105469 53.503906 203.882812 53.277344 203.488281 52.894531 C 203.089844 52.511719 202.523438 51.960938 201.839844 51.304688 C 200.511719 49.949219 198.582031 48.320312 196.691406 46.648438 C 195.71875 45.839844 194.722656 45.066406 193.796875 44.324219 C 193.335938 43.957031 192.886719 43.601562 192.460938 43.261719 C 192.023438 42.945312 191.605469 42.644531 191.222656 42.367188 C 189.6875 41.257812 188.660156 40.519531 188.660156 40.519531 C 188.660156 40.519531 188.4375 40.339844 188.078125 40.105469 C 187.71875 39.867188 187.246094 39.546875 186.769531 39.230469 C 185.816406 38.589844 184.863281 37.953125 184.863281 37.953125 C 184.609375 37.78125 184.339844 37.601562 184.0625 37.414062 C 183.777344 37.238281 183.476562 37.058594 183.167969 36.871094 C 182.546875 36.496094 181.875 36.097656 181.164062 35.667969 C 179.757812 34.78125 178.089844 33.941406 176.289062 32.984375 C 175.839844 32.75 175.382812 32.496094 174.90625 32.265625 C 174.425781 32.039062 173.933594 31.8125 173.433594 31.578125 C 172.433594 31.113281 171.394531 30.636719 170.328125 30.140625 C 168.132812 29.277344 165.847656 28.25 163.351562 27.445312 C 153.503906 23.871094 141.207031 21.652344 128.875 21.605469 C 116.542969 21.652344 104.246094 23.871094 94.394531 27.445312 C 91.902344 28.25 89.613281 29.277344 87.421875 30.140625 C 86.351562 30.636719 85.316406 31.113281 84.3125 31.578125 C 83.8125 31.8125 83.324219 32.039062 82.84375 32.265625 C 82.363281 32.496094 81.910156 32.75 81.457031 32.984375 C 79.65625 33.941406 77.992188 34.78125 76.582031 35.667969 C 75.871094 36.097656 75.203125 36.5 74.578125 36.871094 C 74.269531 37.058594 73.96875 37.242188 73.683594 37.414062 C 73.40625 37.601562 73.140625 37.78125 72.886719 37.953125 C 72.886719 37.953125 71.933594 38.589844 70.980469 39.230469 C 70.503906 39.546875 70.027344 39.867188 69.667969 40.105469 C 69.308594 40.339844 69.085938 40.519531 69.085938 40.519531 C 69.085938 40.519531 68.0625 41.257812 66.527344 42.367188 C 66.140625 42.644531 65.726562 42.945312 65.285156 43.261719 C 64.859375 43.601562 64.414062 43.957031 63.949219 44.324219 C 63.027344 45.066406 62.027344 45.839844 61.058594 46.648438 C 59.164062 48.320312 57.234375 49.949219 55.90625 51.304688 C 55.226562 51.960938 54.660156 52.511719 54.261719 52.894531 C 53.863281 53.277344 53.640625 53.503906 53.640625 53.503906 C 53.640625 53.503906 52.769531 54.414062 51.457031 55.78125 C 50.109375 57.117188 48.507812 59.070312 46.835938 60.964844 C 45.28125 62.960938 43.65625 64.898438 42.597656 66.472656 C 41.492188 68.015625 40.757812 69.042969 40.757812 69.042969 L 38.214844 72.867188 C 32.921875 81.121094 28.679688 90.105469 25.90625 99.570312 C 23.023438 109.007812 21.695312 118.902344 21.609375 128.796875 L 21.605469 128.804688 L 21.605469 128.945312 L 21.609375 128.953125 C 21.695312 138.84375 23.023438 148.742188 25.90625 158.179688 C 28.679688 167.644531 32.921875 176.628906 38.214844 184.882812 L 40.757812 188.703125 C 40.757812 188.703125 41.492188 189.734375 42.597656 191.273438 C 43.65625 192.847656 45.28125 194.789062 46.835938 196.78125 C 48.507812 198.675781 50.109375 200.632812 51.457031 201.964844 C 52.769531 203.332031 53.640625 204.246094 53.640625 204.246094 C 53.640625 204.246094 53.863281 204.46875 54.261719 204.851562 C 54.660156 205.238281 55.226562 205.785156 55.90625 206.441406 C 57.234375 207.796875 59.164062 209.425781 61.058594 211.101562 C 62.027344 211.90625 63.027344 212.679688 63.949219 213.421875 C 64.414062 213.792969 64.859375 214.148438 65.285156 214.484375 C 65.726562 214.804688 66.140625 215.101562 66.527344 215.378906 C 68.0625 216.488281 69.085938 217.226562 69.085938 217.226562 C 69.085938 217.226562 69.308594 217.410156 69.667969 217.640625 C 70.027344 217.882812 70.503906 218.199219 70.980469 218.519531 C 71.933594 219.15625 72.886719 219.792969 72.886719 219.792969 C 73.140625 219.964844 73.40625 220.148438 73.683594 220.335938 C 73.972656 220.507812 74.269531 220.6875 74.582031 220.875 C 75.203125 221.25 75.871094 221.652344 76.585938 222.082031 C 77.992188 222.96875 79.660156 223.804688 81.457031 224.765625 C 81.910156 225 82.363281 225.253906 82.84375 225.484375 C 83.324219 225.707031 83.816406 225.9375 84.3125 226.167969 C 85.316406 226.632812 86.351562 227.113281 87.421875 227.609375 C 89.613281 228.472656 91.902344 229.5 94.394531 230.300781 C 104.246094 233.878906 116.542969 236.09375 128.875 236.144531 C 141.207031 236.09375 153.503906 233.878906 163.351562 230.300781 C 165.847656 229.5 168.136719 228.46875 170.328125 227.609375 C 171.398438 227.113281 172.433594 226.632812 173.433594 226.167969 C 173.933594 225.9375 174.425781 225.707031 174.90625 225.484375 C 175.382812 225.253906 175.839844 225 176.292969 224.765625 C 178.089844 223.804688 179.757812 222.96875 181.164062 222.082031 C 181.875 221.652344 182.546875 221.25 183.167969 220.875 C 183.476562 220.6875 183.777344 220.507812 184.0625 220.335938 C 184.34375 220.144531 184.609375 219.964844 184.863281 219.792969 C 184.863281 219.792969 185.816406 219.15625 186.769531 218.519531 C 187.246094 218.199219 187.722656 217.882812 188.078125 217.640625 C 188.4375 217.410156 188.660156 217.226562 188.660156 217.226562 C 188.660156 217.226562 189.6875 216.488281 191.222656 215.378906 C 191.605469 215.101562 192.023438 214.804688 192.460938 214.484375 C 192.886719 214.148438 193.335938 213.792969 193.796875 213.421875 C 194.722656 212.679688 195.71875 211.90625 196.691406 211.101562 C 198.582031 209.425781 200.511719 207.796875 201.839844 206.441406 C 202.523438 205.785156 203.089844 205.238281 203.488281 204.851562 C 203.882812 204.46875 204.105469 204.246094 204.105469 204.246094 C 204.105469 204.246094 204.980469 203.332031 206.289062 201.964844 C 207.636719 200.632812 209.242188 198.675781 210.914062 196.78125 C 212.464844 194.789062 214.089844 192.847656 215.152344 191.273438 C 216.253906 189.730469 216.988281 188.703125 216.988281 188.703125 L 219.535156 184.882812 C 224.824219 176.628906 229.070312 167.644531 231.839844 158.179688 C 234.722656 148.742188 236.050781 138.84375 236.140625 128.953125 L 236.140625 128.945312 L 236.144531 128.875 L 236.140625 128.804688 " fill-opacity="1" fill-rule="nonzero"/></g><path fill="#f2dea2" d="M 128.984375 41.851562 C 83.835938 41.851562 46.558594 76.042969 42.277344 120.453125 C 45.070312 118.199219 47.894531 115.679688 50.835938 113.054688 C 53.816406 110.386719 56.898438 107.636719 60.039062 105.097656 C 63.328125 102.414062 80.054688 101.433594 84.015625 105.246094 C 89 110.015625 93.71875 114.355469 98.050781 118.164062 C 98.109375 118.203125 98.171875 118.242188 98.230469 118.292969 C 114.28125 132.414062 122.933594 137.582031 125.582031 139.007812 C 131.703125 135.367188 140.613281 135.316406 145.707031 140.863281 C 148.988281 140.15625 152.40625 140.609375 155.535156 142.054688 C 155.152344 139.632812 155.3125 137.136719 156.074219 134.832031 C 157.089844 131.753906 159.632812 127.492188 165.960938 124.644531 C 173.355469 121.28125 181.824219 122.226562 188.28125 126.40625 C 183.835938 119.207031 177.765625 116.003906 173.882812 114.632812 C 167.328125 112.28125 161.273438 112.839844 158.175781 114.4375 C 157.683594 114.691406 157.265625 114.96875 156.941406 115.261719 C 157.519531 115.949219 157.984375 116.886719 158.269531 118.007812 C 159.105469 121.308594 158.125 125.472656 154.039062 127.320312 C 151.015625 128.683594 147.808594 128.261719 145.242188 126.171875 C 141.675781 123.257812 140.167969 117.851562 141.390625 112.390625 C 143.234375 104.132812 149.085938 99.878906 153.671875 97.769531 C 161.007812 94.394531 170.273438 94.160156 176.542969 97.117188 C 185.519531 94.757812 195.824219 96.492188 204.277344 101.8125 C 208.300781 104.351562 211.660156 107.554688 214.257812 111.257812 C 206.097656 71.367188 171.054688 41.851562 128.984375 41.851562 Z M 172.382812 138.253906 C 171.894531 138.320312 171.433594 138.460938 171.027344 138.644531 C 171.253906 138.78125 171.480469 138.929688 171.695312 139.097656 C 173.800781 140.730469 175.117188 144.070312 173.320312 147.835938 C 172.207031 150.195312 169.816406 151.832031 166.933594 152.207031 C 166.363281 152.285156 165.792969 152.285156 165.226562 152.253906 C 165.875 153.8125 166.3125 155.433594 166.519531 157.09375 C 169.824219 157.226562 173.46875 155.496094 176.125 152.394531 C 178.960938 149.074219 179.921875 145.144531 178.703125 141.847656 C 177.230469 139.234375 174.871094 137.878906 172.382812 138.253906 " fill-opacity="1" fill-rule="nonzero"/><path fill="#ffffff" d="M 216.019531 126.257812 C 212.769531 121.636719 206.101562 120.640625 202.46875 121.480469 C 201.4375 121.714844 200.550781 122.042969 199.753906 122.46875 C 196.882812 123.941406 195.1875 126.746094 195.394531 129.628906 C 195.5625 131.980469 196.914062 133.753906 199.101562 134.507812 C 200.371094 134.933594 201.679688 134.1875 202.28125 133.253906 C 202.816406 132.4375 202.75 131.65625 202.089844 130.949219 C 201.710938 130.542969 201.523438 129.988281 201.570312 129.433594 C 201.621094 128.875 201.910156 128.371094 202.355469 128.039062 C 204.378906 126.535156 207.15625 126.667969 209.617188 128.367188 C 212.261719 130.203125 214.429688 133.691406 215.539062 138.578125 C 215.886719 135.414062 216.082031 132.21875 216.082031 128.984375 C 216.082031 128.0625 216.054688 127.167969 216.019531 126.257812 Z M 147.722656 123.125 C 148.707031 123.933594 150.324219 124.699219 152.421875 123.746094 C 153.679688 123.171875 154.410156 122.191406 154.582031 120.820312 C 154.761719 119.394531 154.269531 118.210938 153.96875 117.828125 C 153.484375 117.75 153.046875 117.507812 152.734375 117.121094 C 152.328125 116.632812 152.191406 115.964844 152.363281 115.347656 C 152.863281 113.570312 154.253906 112.046875 156.378906 110.953125 C 160.917969 108.609375 167.96875 108.527344 174.503906 110.703125 C 180.972656 108.511719 194.203125 110.167969 199.636719 118.230469 C 200.253906 118.007812 200.90625 117.8125 201.601562 117.65625 C 204.75 116.929688 209.953125 117.140625 214.339844 119.597656 C 212.027344 113.726562 207.84375 108.695312 202.1875 105.132812 C 194.425781 100.25 184.957031 98.734375 176.886719 101.09375 C 176.394531 101.230469 175.867188 101.183594 175.421875 100.941406 C 170.234375 98.183594 161.785156 98.355469 155.3125 101.332031 C 151.53125 103.074219 146.714844 106.554688 145.222656 113.25 C 144.191406 117.828125 145.734375 121.507812 147.722656 123.125 Z M 167.578125 128.21875 C 163.589844 130.011719 160.902344 132.722656 159.800781 136.0625 C 158.8125 139.054688 159.136719 142.476562 160.667969 145.210938 C 160.878906 145.550781 161.117188 145.960938 161.402344 146.273438 C 162.71875 147.835938 164.53125 148.578125 166.429688 148.316406 C 167.957031 148.113281 169.242188 147.285156 169.777344 146.152344 C 170.695312 144.222656 170.089844 142.820312 169.289062 142.199219 C 168.871094 141.875 168.5 141.84375 168.414062 141.90625 C 167.769531 142.453125 166.855469 142.507812 166.132812 142.074219 C 165.414062 141.640625 165.054688 140.796875 165.238281 139.972656 C 165.894531 137.054688 168.476562 134.855469 171.820312 134.371094 C 175.082031 133.898438 179.476562 135.144531 182.171875 139.996094 C 182.183594 140.015625 182.1875 140.035156 182.199219 140.054688 C 182.199219 140.058594 182.199219 140.058594 182.199219 140.058594 C 182.394531 140.394531 182.582031 140.730469 182.726562 141.066406 C 184.992188 146 184.964844 152.082031 182.644531 157.707031 C 180 164.121094 174.671875 169.257812 167.550781 172.304688 C 167.808594 174.261719 167.734375 176.195312 167.359375 178.0625 C 171.578125 176.484375 176.664062 176.59375 181.179688 178.542969 C 200.4375 163.867188 195.785156 142.96875 192.566406 136.710938 C 187.988281 127.84375 176.777344 124.042969 167.578125 128.21875 Z M 180.671875 182.621094 C 180.617188 182.601562 180.558594 182.585938 180.503906 182.554688 C 175.28125 179.871094 168.628906 180.496094 165.035156 184.015625 L 164.628906 184.453125 C 164.433594 184.785156 164.175781 185.132812 163.871094 185.496094 C 163.171875 186.652344 162.824219 188.027344 162.917969 189.339844 C 163.035156 191.734375 164.382812 193.507812 166.128906 193.601562 C 167.988281 193.613281 168.585938 192.578125 168.796875 192.109375 C 169.066406 191.492188 169.109375 190.636719 168.597656 190.121094 C 168.074219 189.597656 167.890625 188.816406 168.121094 188.109375 C 168.355469 187.40625 168.96875 186.898438 169.703125 186.789062 C 171.121094 186.582031 172.476562 186.707031 173.636719 187.128906 C 173.636719 187.128906 173.640625 187.128906 173.640625 187.128906 C 173.660156 187.136719 173.683594 187.148438 173.707031 187.15625 C 176.789062 188.1875 178.886719 191.15625 179.238281 195.101562 C 179.386719 196.71875 179.210938 198.605469 178.613281 200.53125 C 182.078125 198.132812 185.363281 195.472656 188.464844 192.566406 C 186.804688 186.886719 183.375 184.035156 180.671875 182.621094 Z M 163.433594 171.507812 C 163.0625 169.902344 162.4375 168.347656 161.585938 166.90625 C 161.257812 166.339844 161.226562 165.65625 161.5 165.0625 C 162.410156 163.144531 162.835938 161.027344 162.726562 158.9375 C 162.625 155.335938 161.078125 151.714844 158.476562 148.96875 C 154.898438 145.132812 149.964844 143.59375 145.566406 144.941406 C 144.78125 145.203125 143.917969 144.910156 143.414062 144.242188 C 139.679688 139.210938 131.660156 139.484375 126.8125 142.871094 C 123.890625 144.894531 122.269531 147.863281 122.238281 151.25 C 122.222656 153.277344 122.910156 154.898438 124.117188 155.6875 C 125.023438 156.269531 126.113281 156.324219 127.195312 155.835938 C 127.683594 155.621094 128.121094 154.976562 128.300781 154.21875 C 128.480469 153.476562 128.332031 153.003906 128.261719 152.917969 C 127.332031 152.582031 126.851562 151.640625 127.070312 150.671875 C 127.878906 147.175781 130.949219 144.921875 134.578125 145.164062 C 137.609375 145.285156 141.058594 147.074219 142.519531 150.679688 C 145.929688 149.914062 149.644531 150.8125 152.648438 153.230469 C 158.632812 158.058594 159.804688 167.429688 155.328125 174.550781 C 153.242188 177.820312 150.25 180.339844 146.421875 182.046875 C 143.324219 183.417969 140.097656 184.015625 136.851562 184.015625 C 136.171875 184.015625 135.492188 183.984375 134.808594 183.933594 C 139.703125 185.984375 145.101562 187.507812 150.832031 187.945312 L 151.152344 187.945312 C 154.726562 187.945312 158.296875 186.160156 160.714844 183.160156 C 160.980469 182.765625 161.226562 182.410156 161.5 182.09375 C 163.589844 179.007812 164.277344 175.25 163.433594 171.507812 Z M 103.292969 182.054688 C 102.574219 183.585938 101.648438 184.929688 100.539062 186.054688 C 101.390625 186.785156 102.394531 187.667969 103.542969 188.679688 C 109.246094 193.699219 117.867188 201.285156 126.777344 207.183594 L 127.171875 207.453125 C 133.105469 211.410156 138.234375 214.828125 143.316406 214.894531 C 146.914062 214.300781 150.460938 213.472656 153.933594 212.429688 C 147.292969 211.34375 139.945312 208.070312 131.589844 202.535156 C 121.464844 195.824219 110.175781 187.34375 103.292969 182.054688 Z M 110.257812 167.15625 C 110.269531 167.167969 110.285156 167.179688 110.289062 167.183594 C 110.292969 167.1875 110.296875 167.191406 110.296875 167.191406 C 110.890625 167.785156 111.414062 168.3125 111.972656 168.832031 C 111.972656 168.832031 111.976562 168.832031 111.976562 168.832031 C 111.984375 168.839844 111.992188 168.847656 111.996094 168.851562 C 111.996094 168.855469 112 168.855469 112 168.859375 C 112.007812 168.863281 112.011719 168.871094 112.019531 168.875 C 120.726562 176.6875 133.910156 183.285156 144.828125 178.464844 C 147.933594 177.074219 150.351562 175.054688 152.007812 172.460938 C 155.4375 166.996094 154.644531 159.886719 150.191406 156.28125 C 147.214844 153.894531 144.011719 154.035156 142.019531 154.96875 C 139.800781 156.046875 138.636719 158.113281 138.933594 160.476562 C 139.179688 162.4375 140.175781 163.679688 141.617188 163.792969 C 142.589844 163.921875 143.832031 163.339844 144.25 161.929688 C 144.496094 161.089844 145.269531 160.613281 146.152344 160.527344 C 147.03125 160.539062 147.796875 161.128906 148.023438 161.976562 C 148.820312 164.925781 147.707031 168.078125 145.046875 170.410156 C 141.714844 173.335938 135.558594 175.128906 129.328125 172.539062 C 120.898438 169.011719 115.058594 161.996094 109.910156 155.808594 C 109.375 155.164062 108.855469 154.542969 108.339844 153.933594 C 109.4375 157.9375 109.378906 161.726562 108.105469 164.929688 C 108.816406 165.699219 109.527344 166.453125 110.257812 167.15625 Z M 85.085938 145.511719 C 92.929688 147.535156 98.207031 152.492188 99.5625 159.109375 C 99.777344 160.171875 99.09375 161.210938 98.03125 161.429688 C 97.96875 161.4375 97.902344 161.4375 97.835938 161.445312 C 97.769531 161.453125 97.707031 161.464844 97.636719 161.464844 C 97.632812 161.464844 97.628906 161.460938 97.621094 161.460938 C 97.609375 161.460938 97.597656 161.460938 97.585938 161.457031 C 97.5625 161.460938 97.546875 161.464844 97.527344 161.464844 C 96.574219 161.550781 96.191406 162.875 96.152344 163.039062 C 95.914062 164.179688 96.140625 166.359375 98.511719 167.289062 C 99.765625 167.765625 100.875 167.40625 101.585938 167.027344 C 102.554688 166.503906 103.421875 165.585938 104.027344 164.457031 C 104.042969 164.425781 104.046875 164.394531 104.0625 164.363281 C 105.039062 162.496094 106.796875 157.261719 101.984375 148.957031 C 101.414062 147.976562 100.777344 147.078125 100.085938 146.285156 C 100.082031 146.28125 100.078125 146.273438 100.074219 146.273438 C 100.066406 146.265625 100.058594 146.261719 100.058594 146.253906 C 92 136.632812 74.574219 133.074219 59.523438 137.988281 C 53.71875 139.886719 48.410156 142.890625 43.707031 146.894531 C 44.433594 150.386719 45.382812 153.855469 46.558594 157.257812 C 58.316406 145.417969 74.46875 142.753906 85.085938 145.511719 Z M 100.925781 171.324219 C 100.527344 171.390625 100.132812 171.429688 99.734375 171.429688 C 98.839844 171.429688 97.957031 171.273438 97.105469 170.949219 C 92.894531 169.300781 91.675781 165.28125 92.3125 162.238281 C 92.554688 161.074219 93.054688 160.097656 93.71875 159.335938 C 87.9375 156 81.386719 154.890625 74.761719 156.015625 C 79.433594 156.757812 83.757812 158.707031 87.226562 161.789062 C 92.371094 166.367188 94.601562 172.746094 93.195312 178.855469 C 92.988281 179.753906 92.144531 180.195312 91.257812 180.375 C 90.332031 180.367188 89.542969 179.710938 89.359375 178.804688 C 89.191406 177.972656 88.410156 177.640625 87.792969 177.605469 C 87.382812 177.546875 85.992188 177.644531 85.382812 179.53125 C 84.890625 181.039062 85.335938 182.289062 85.792969 183.074219 C 86.957031 185.210938 89.375 186.351562 92.007812 186.003906 C 93.671875 185.8125 95.128906 185.289062 96.382812 184.441406 C 98.335938 183.121094 99.722656 181.078125 100.5 178.382812 C 101.078125 176.269531 101.21875 173.855469 100.925781 171.324219 Z M 49.898438 122.070312 C 51.105469 122.28125 52.109375 122.820312 52.875 123.628906 C 57.328125 119.757812 61.503906 118.179688 64.582031 119.289062 C 65.289062 119.542969 65.902344 119.945312 66.410156 120.457031 C 68.667969 117.652344 71.03125 116.273438 73.5625 116.25 L 73.621094 116.25 C 76.570312 116.25 79.371094 118.132812 82.140625 121.988281 C 83.214844 121.058594 84.503906 120.519531 85.953125 120.4375 C 88.195312 120.328125 90.515625 121.28125 92.660156 122.671875 C 92.675781 122.214844 92.71875 121.769531 92.839844 121.347656 C 92.988281 120.816406 93.265625 120.195312 93.757812 119.601562 C 89.855469 116.121094 85.6875 112.273438 81.300781 108.078125 C 79.09375 105.957031 64.644531 106.402344 62.511719 108.140625 C 59.4375 110.628906 56.394531 113.34375 53.449219 115.976562 C 50.964844 118.199219 48.558594 120.34375 46.167969 122.335938 C 47.464844 121.996094 48.75 121.867188 49.898438 122.070312 Z M 89.640625 174.003906 C 89.316406 170.609375 87.585938 167.359375 84.617188 164.71875 C 80.074219 160.679688 71.71875 157.625 61.839844 161.09375 C 58.226562 163.382812 54.914062 166.285156 51.96875 169.722656 C 52.726562 171.144531 53.457031 172.441406 54.179688 173.640625 C 58.679688 168.902344 65.25 166.980469 70.230469 167.226562 C 75.097656 167.472656 78.964844 169.59375 80.847656 173.042969 C 81.125 173.554688 81.160156 174.171875 80.945312 174.714844 C 80.722656 175.257812 80.269531 175.675781 79.710938 175.851562 C 77.472656 176.558594 77.035156 178.175781 76.96875 179.070312 C 76.855469 180.617188 77.660156 182.121094 78.921875 182.769531 C 78.953125 182.785156 78.980469 182.796875 79.011719 182.816406 C 79.730469 183.144531 80.589844 183.195312 81.535156 182.96875 C 81.125 181.457031 81.148438 179.851562 81.652344 178.3125 C 82.621094 175.339844 85.179688 173.519531 88.019531 173.6875 C 88.582031 173.722656 89.128906 173.828125 89.640625 174.003906 " fill-opacity="1" fill-rule="nonzero"/><path fill="#27498c" d="M 207.382812 131.589844 C 207.171875 131.449219 206.84375 131.242188 206.460938 131.097656 C 206.753906 132.519531 206.464844 134.023438 205.570312 135.394531 C 204.933594 136.378906 204.066406 137.15625 203.089844 137.695312 C 205.636719 140.347656 207.445312 144.253906 208.320312 149.117188 C 209.210938 154.023438 209.085938 159.960938 207.726562 166.226562 C 208.597656 164.378906 209.414062 162.492188 210.160156 160.566406 C 210.167969 160.515625 210.175781 160.460938 210.191406 160.414062 C 215.304688 142.707031 210.585938 133.816406 207.382812 131.589844 Z M 181.132812 113.773438 C 184.878906 116.066406 188.984375 119.667969 192.195312 125.261719 C 192.972656 123.25 194.34375 121.453125 196.167969 120.097656 C 192.910156 115.570312 186.304688 113.859375 181.132812 113.773438 Z M 172.386719 193.6875 C 171.296875 196.179688 168.832031 197.613281 165.933594 197.519531 C 162.757812 197.34375 160.214844 194.996094 159.332031 191.675781 C 157.5625 191.878906 155.835938 191.980469 154.136719 191.980469 C 153.109375 191.980469 152.09375 191.945312 151.074219 191.871094 L 150.71875 191.871094 C 150.714844 191.871094 150.707031 191.867188 150.703125 191.867188 C 150.660156 191.867188 150.613281 191.867188 150.574219 191.867188 C 150.566406 191.867188 150.566406 191.863281 150.5625 191.863281 C 150.28125 191.859375 149.976562 191.847656 149.710938 191.792969 C 149.683594 191.789062 149.660156 191.773438 149.628906 191.769531 C 144.601562 191.289062 139.832031 190.066406 135.425781 188.40625 C 143.796875 194.527344 152.671875 199.59375 160.492188 200.71875 C 166.382812 201.578125 170.546875 200.214844 172.175781 196.875 C 172.84375 195.507812 172.953125 193.996094 172.714844 192.722656 C 172.628906 193.046875 172.527344 193.371094 172.386719 193.6875 Z M 142.144531 167.722656 C 141.867188 167.738281 141.582031 167.726562 141.289062 167.703125 C 138.761719 167.492188 135.613281 165.597656 135.042969 160.960938 C 134.601562 157.429688 136.082031 154.203125 138.964844 152.21875 C 138.199219 150.226562 136.179688 149.152344 134.421875 149.082031 C 133.820312 149.03125 132.207031 149.121094 131.339844 150.476562 C 131.921875 151.214844 132.269531 152.199219 132.304688 153.332031 C 132.378906 155.5625 131.199219 158.367188 128.789062 159.421875 C 126.503906 160.453125 124.011719 160.292969 121.976562 158.976562 C 119.625 157.445312 118.285156 154.613281 118.316406 151.210938 C 118.347656 147.53125 119.734375 144.226562 122.246094 141.636719 C 118.398438 139.382812 110.21875 133.96875 96.71875 122.179688 C 96.652344 122.277344 96.628906 122.363281 96.613281 122.417969 C 96.355469 123.320312 97 125.585938 99.65625 128.992188 C 99.933594 129.296875 100.296875 129.738281 100.664062 130.179688 C 101.351562 131.019531 101.238281 132.269531 100.40625 132.953125 C 100.039062 133.261719 99.59375 133.410156 99.152344 133.410156 C 98.59375 133.410156 98.039062 133.171875 97.65625 132.703125 L 97.632812 132.671875 C 97.300781 132.273438 96.976562 131.875 96.648438 131.507812 C 96.644531 131.5 96.640625 131.496094 96.636719 131.488281 C 96.632812 131.488281 96.628906 131.484375 96.628906 131.480469 C 92.691406 126.941406 88.703125 124.195312 86.175781 124.355469 C 85.417969 124.398438 84.816406 124.738281 84.296875 125.394531 C 84.800781 126.269531 85.285156 127.175781 85.75 128.128906 C 86.226562 129.101562 85.824219 130.273438 84.847656 130.75 C 83.886719 131.21875 82.699219 130.820312 82.222656 129.84375 C 81.515625 128.394531 80.765625 127.035156 79.976562 125.804688 C 77.664062 122.117188 75.46875 120.171875 73.617188 120.171875 L 73.59375 120.171875 C 71.824219 120.1875 69.800781 122 67.738281 125.410156 C 67.300781 126.140625 66.457031 126.511719 65.613281 126.308594 C 64.789062 126.109375 64.175781 125.410156 64.101562 124.5625 C 63.988281 123.25 63.421875 123.042969 63.234375 122.972656 C 61.746094 122.429688 58.160156 123.789062 53.828125 128.101562 C 52.109375 129.78125 50.359375 131.847656 48.625 134.25 C 48.238281 134.785156 47.640625 135.0625 47.03125 135.0625 C 46.632812 135.0625 46.230469 134.949219 45.882812 134.695312 C 45.003906 134.0625 44.804688 132.832031 45.441406 131.953125 C 46.976562 129.835938 48.523438 127.964844 50.0625 126.351562 C 49.832031 126.101562 49.550781 125.992188 49.222656 125.933594 C 47.117188 125.578125 43.339844 127.539062 41.855469 129.109375 C 41.863281 133.667969 42.21875 138.148438 42.898438 142.492188 C 47.417969 138.960938 52.421875 136.253906 57.828125 134.429688 C 60.046875 132.101562 61.742188 129.140625 61.761719 129.113281 C 62.292969 128.167969 63.492188 127.84375 64.4375 128.375 C 65.378906 128.914062 65.707031 130.109375 65.171875 131.050781 C 65.140625 131.113281 64.746094 131.792969 64.105469 132.761719 C 79.019531 129.847656 94.496094 133.914062 102.71875 143.335938 C 106.210938 145.242188 109.328125 148.976562 112.925781 153.296875 C 117.789062 159.140625 123.300781 165.765625 130.839844 168.917969 C 135.308594 170.773438 139.660156 169.679688 142.144531 167.722656 Z M 107.152344 137.992188 C 106.769531 138.492188 106.1875 138.753906 105.605469 138.753906 C 105.179688 138.753906 104.761719 138.621094 104.402344 138.34375 C 103.773438 137.855469 103.429688 137.507812 103.429688 137.507812 C 102.671875 136.742188 102.675781 135.5 103.445312 134.734375 C 104.207031 133.980469 105.441406 133.980469 106.195312 134.726562 C 106.238281 134.761719 106.445312 134.964844 106.800781 135.238281 C 107.660156 135.902344 107.816406 137.136719 107.152344 137.992188 Z M 77.179688 186.285156 C 74.816406 184.945312 72.535156 183.917969 70.328125 183.203125 C 76.675781 187.550781 82.632812 194.425781 87.835938 200.441406 C 90.996094 204.09375 93.976562 207.535156 96.535156 209.828125 C 101.855469 211.960938 107.332031 213.550781 112.921875 214.589844 C 107.726562 211.601562 102.292969 207.296875 96.277344 201.480469 C 88.765625 194.234375 82.695312 189.402344 77.179688 186.285156 Z M 73.050781 178.789062 C 73.21875 176.511719 74.316406 174.589844 76.101562 173.308594 C 74.671875 172.039062 72.5625 171.273438 70.035156 171.148438 C 65.6875 170.921875 59.964844 172.707031 56.363281 177.089844 C 56.71875 177.632812 57.078125 178.164062 57.449219 178.683594 C 62.441406 177.507812 67.59375 177.941406 73.058594 180.003906 C 73.03125 179.601562 73.027344 179.199219 73.050781 178.789062 " fill-opacity="1" fill-rule="nonzero"/><path fill="#0477bf" d="M 204.464844 149.8125 C 203.433594 144.128906 200.921875 139.992188 197.574219 138.460938 C 197.539062 138.449219 197.511719 138.4375 197.480469 138.421875 C 200.515625 147.675781 202.109375 166.5625 184.851562 180.648438 C 187.800781 182.8125 190.074219 185.832031 191.515625 189.476562 C 203.097656 176.402344 206.386719 160.445312 204.464844 149.8125 Z M 166.867188 161.027344 C 166.773438 161.027344 166.679688 161.011719 166.585938 161.011719 C 166.445312 162.636719 166.078125 164.253906 165.460938 165.796875 C 165.910156 166.644531 166.285156 167.527344 166.609375 168.429688 C 172.472656 165.761719 176.84375 161.484375 179.019531 156.210938 C 179.292969 155.539062 179.519531 154.867188 179.71875 154.1875 C 179.519531 154.441406 179.316406 154.699219 179.105469 154.945312 C 175.804688 158.800781 171.21875 161.027344 166.867188 161.027344 Z M 163.722656 204.886719 C 162.566406 204.890625 161.304688 204.800781 159.929688 204.601562 C 148.644531 202.984375 134.5 194.183594 115.414062 176.914062 C 115.351562 176.867188 115.3125 176.828125 115.257812 176.78125 C 113.292969 175.265625 111.355469 173.617188 109.328125 171.730469 C 109.320312 171.722656 109.3125 171.714844 109.304688 171.707031 C 108.738281 171.179688 108.207031 170.648438 107.675781 170.117188 C 107.597656 170.054688 107.53125 169.984375 107.464844 169.910156 C 106.96875 169.429688 106.480469 168.929688 105.996094 168.421875 C 105.582031 168.886719 105.144531 169.324219 104.664062 169.695312 C 105.128906 172.632812 105.105469 175.496094 104.589844 178.101562 C 111.273438 183.253906 123.171875 192.246094 133.761719 199.261719 C 147.65625 208.476562 158.300781 210.996094 167.257812 207.210938 C 167.277344 207.203125 167.40625 207.140625 167.519531 207.09375 C 167.871094 206.917969 168.226562 206.738281 168.578125 206.542969 C 168.660156 206.488281 168.75 206.445312 168.839844 206.394531 C 168.851562 206.394531 168.859375 206.390625 168.867188 206.382812 C 171.734375 204.851562 173.476562 202.710938 174.429688 200.550781 C 172.757812 202.582031 169.578125 204.886719 163.722656 204.886719 Z M 124.601562 210.449219 C 115.480469 204.410156 106.386719 196.40625 100.949219 191.625 C 99.476562 190.328125 98.246094 189.246094 97.296875 188.449219 C 95.835938 189.207031 94.226562 189.699219 92.484375 189.898438 C 92.007812 189.960938 91.539062 189.988281 91.078125 189.988281 C 90.382812 189.988281 89.710938 189.902344 89.050781 189.777344 C 92.121094 192.257812 95.40625 195.191406 99 198.664062 C 111.457031 210.703125 121.085938 215.902344 131.207031 216.039062 L 131.21875 216.039062 C 131.898438 216.03125 132.527344 215.996094 133.109375 215.964844 L 133.109375 215.972656 C 133.25 215.96875 133.375 215.964844 133.488281 215.964844 C 130.679688 214.503906 127.878906 212.636719 125 210.714844 Z M 93.25 154.695312 C 91.222656 152.195312 88.113281 150.34375 84.105469 149.3125 C 73.882812 146.671875 58.410156 150.023438 48.09375 161.378906 C 48.691406 162.890625 49.355469 164.414062 50.078125 165.945312 C 53.039062 162.695312 56.320312 159.921875 59.878906 157.6875 C 59.902344 157.671875 59.929688 157.667969 59.949219 157.652344 C 59.953125 157.652344 59.953125 157.648438 59.957031 157.648438 C 59.972656 157.640625 59.984375 157.632812 60 157.625 C 60.007812 157.621094 60.011719 157.613281 60.019531 157.609375 C 60.027344 157.601562 60.039062 157.601562 60.042969 157.597656 C 70.808594 150.894531 83.023438 149.953125 93.25 154.695312 Z M 60.691406 183.019531 C 67.863281 192.074219 76.695312 199.570312 86.699219 205.121094 C 86.097656 204.425781 85.488281 203.726562 84.871094 203.011719 C 77.695312 194.71875 69.035156 184.6875 60.691406 183.019531 " fill-opacity="1" fill-rule="nonzero"/><g clip-path="url(#87d78ed9a6)"><path fill="#112140" d="M 220.003906 128.984375 C 220.003906 127.96875 219.972656 126.980469 219.9375 125.96875 C 219.949219 125.878906 219.964844 125.789062 219.964844 125.691406 C 219.964844 125.574219 219.945312 125.453125 219.921875 125.339844 C 217.980469 76.320312 178.039062 37.929688 128.984375 37.929688 C 80.296875 37.929688 40.351562 75.988281 38.054688 124.539062 C 37.964844 125.800781 37.929688 127.097656 37.929688 128.355469 L 37.929688 128.984375 C 37.929688 134.988281 38.5 140.886719 39.609375 146.5 C 40.597656 151.632812 42.070312 156.734375 43.976562 161.648438 C 45.066406 164.519531 46.378906 167.449219 47.875 170.371094 C 47.878906 170.378906 47.882812 170.386719 47.886719 170.394531 C 49.445312 173.402344 50.855469 175.847656 52.304688 178.039062 C 53.15625 179.417969 54.097656 180.800781 55.046875 182.074219 C 65.105469 196.058594 78.820312 206.855469 94.703125 213.304688 L 94.707031 213.300781 C 94.722656 213.304688 94.742188 213.3125 94.757812 213.320312 L 94.746094 213.347656 C 105.648438 217.761719 117.171875 220.003906 128.984375 220.003906 C 129.769531 220.003906 130.507812 220.003906 131.183594 219.960938 C 131.902344 219.960938 132.660156 219.953125 133.179688 219.886719 C 133.210938 219.886719 133.242188 219.886719 133.269531 219.882812 C 133.652344 219.882812 134.0625 219.875 134.449219 219.839844 L 134.449219 219.84375 C 137.855469 219.625 140.910156 219.28125 143.777344 218.796875 C 143.796875 218.792969 143.816406 218.789062 143.839844 218.785156 C 143.851562 218.78125 143.859375 218.78125 143.871094 218.777344 C 152.539062 217.363281 160.921875 214.683594 168.796875 210.8125 C 168.910156 210.769531 169.140625 210.683594 169.246094 210.617188 C 169.246094 210.613281 169.246094 210.613281 169.25 210.613281 L 170.222656 210.152344 C 170.378906 210.074219 170.628906 209.949219 170.902344 209.742188 C 178.578125 205.796875 185.683594 200.714844 192.019531 194.621094 L 192.011719 194.617188 C 192.167969 194.503906 192.320312 194.375 192.359375 194.28125 C 201.871094 185.082031 209.105469 174.175781 213.867188 161.867188 L 213.863281 161.863281 C 213.914062 161.738281 213.953125 161.605469 213.980469 161.464844 C 217.972656 151.1875 220.003906 140.261719 220.003906 128.984375 Z M 171.695312 139.097656 C 171.480469 138.929688 171.253906 138.78125 171.027344 138.644531 C 171.433594 138.460938 171.894531 138.320312 172.382812 138.253906 C 174.871094 137.878906 177.230469 139.234375 178.703125 141.847656 C 179.921875 145.144531 178.960938 149.074219 176.125 152.394531 C 173.46875 155.496094 169.824219 157.226562 166.519531 157.09375 C 166.3125 155.433594 165.875 153.8125 165.226562 152.253906 C 165.792969 152.285156 166.363281 152.285156 166.933594 152.207031 C 169.816406 151.832031 172.207031 150.195312 173.320312 147.835938 C 175.117188 144.070312 173.800781 140.730469 171.695312 139.097656 Z M 166.585938 161.011719 C 166.679688 161.011719 166.773438 161.027344 166.867188 161.027344 C 171.21875 161.027344 175.804688 158.800781 179.105469 154.945312 C 179.316406 154.699219 179.519531 154.441406 179.71875 154.1875 C 179.519531 154.867188 179.292969 155.539062 179.019531 156.210938 C 176.84375 161.484375 172.472656 165.761719 166.609375 168.429688 C 166.285156 167.527344 165.910156 166.644531 165.460938 165.796875 C 166.078125 164.253906 166.445312 162.636719 166.585938 161.011719 Z M 167.550781 172.304688 C 174.671875 169.257812 180 164.121094 182.644531 157.707031 C 184.964844 152.082031 184.992188 146 182.726562 141.066406 C 182.582031 140.730469 182.394531 140.394531 182.199219 140.058594 C 182.199219 140.058594 182.199219 140.058594 182.199219 140.054688 C 182.1875 140.035156 182.183594 140.015625 182.171875 139.996094 C 179.476562 135.144531 175.082031 133.898438 171.820312 134.371094 C 168.476562 134.855469 165.894531 137.054688 165.238281 139.972656 C 165.054688 140.796875 165.414062 141.640625 166.132812 142.074219 C 166.855469 142.507812 167.769531 142.453125 168.414062 141.90625 C 168.5 141.84375 168.871094 141.875 169.289062 142.199219 C 170.089844 142.820312 170.695312 144.222656 169.777344 146.152344 C 169.242188 147.285156 167.957031 148.113281 166.429688 148.316406 C 164.53125 148.578125 162.71875 147.835938 161.402344 146.273438 C 161.117188 145.960938 160.878906 145.550781 160.667969 145.210938 C 159.136719 142.476562 158.8125 139.054688 159.800781 136.0625 C 160.902344 132.722656 163.589844 130.011719 167.578125 128.21875 C 176.777344 124.042969 187.988281 127.84375 192.566406 136.710938 C 195.785156 142.96875 200.4375 163.867188 181.179688 178.542969 C 176.664062 176.59375 171.578125 176.484375 167.359375 178.0625 C 167.734375 176.195312 167.808594 174.261719 167.550781 172.304688 Z M 161.5 182.09375 C 161.226562 182.410156 160.980469 182.765625 160.714844 183.160156 C 158.296875 186.160156 154.726562 187.945312 151.152344 187.945312 L 150.832031 187.945312 C 145.101562 187.507812 139.703125 185.984375 134.808594 183.933594 C 135.492188 183.984375 136.171875 184.015625 136.851562 184.015625 C 140.097656 184.015625 143.324219 183.417969 146.421875 182.046875 C 150.25 180.339844 153.242188 177.820312 155.328125 174.550781 C 159.804688 167.429688 158.632812 158.058594 152.648438 153.230469 C 149.644531 150.8125 145.929688 149.914062 142.519531 150.679688 C 141.058594 147.074219 137.609375 145.285156 134.578125 145.164062 C 130.949219 144.921875 127.878906 147.175781 127.070312 150.671875 C 126.851562 151.640625 127.332031 152.582031 128.261719 152.917969 C 128.332031 153.003906 128.480469 153.476562 128.300781 154.21875 C 128.121094 154.976562 127.683594 155.621094 127.195312 155.835938 C 126.113281 156.324219 125.023438 156.269531 124.117188 155.6875 C 122.910156 154.898438 122.222656 153.277344 122.238281 151.25 C 122.269531 147.863281 123.890625 144.894531 126.8125 142.871094 C 131.660156 139.484375 139.679688 139.210938 143.414062 144.242188 C 143.917969 144.910156 144.78125 145.203125 145.566406 144.941406 C 149.964844 143.59375 154.898438 145.132812 158.476562 148.96875 C 161.078125 151.714844 162.625 155.335938 162.726562 158.9375 C 162.835938 161.027344 162.410156 163.144531 161.5 165.0625 C 161.226562 165.65625 161.257812 166.339844 161.585938 166.90625 C 162.4375 168.347656 163.0625 169.902344 163.433594 171.507812 C 164.277344 175.25 163.589844 179.007812 161.5 182.09375 Z M 165.933594 197.519531 C 168.832031 197.613281 171.296875 196.179688 172.386719 193.6875 C 172.527344 193.371094 172.628906 193.046875 172.714844 192.722656 C 172.953125 193.996094 172.84375 195.507812 172.175781 196.875 C 170.546875 200.214844 166.382812 201.578125 160.492188 200.71875 C 152.671875 199.59375 143.796875 194.527344 135.425781 188.40625 C 139.832031 190.066406 144.601562 191.289062 149.628906 191.769531 C 149.660156 191.773438 149.683594 191.789062 149.710938 191.792969 C 149.976562 191.847656 150.28125 191.859375 150.5625 191.863281 C 150.566406 191.863281 150.566406 191.867188 150.574219 191.867188 C 150.613281 191.867188 150.660156 191.867188 150.703125 191.867188 C 150.707031 191.867188 150.714844 191.871094 150.71875 191.871094 L 151.074219 191.871094 C 152.09375 191.945312 153.109375 191.980469 154.136719 191.980469 C 155.835938 191.980469 157.5625 191.878906 159.332031 191.675781 C 160.214844 194.996094 162.757812 197.34375 165.933594 197.519531 Z M 108.339844 153.933594 C 108.855469 154.542969 109.375 155.164062 109.910156 155.808594 C 115.058594 161.996094 120.898438 169.011719 129.328125 172.539062 C 135.558594 175.128906 141.714844 173.335938 145.046875 170.410156 C 147.707031 168.078125 148.820312 164.925781 148.023438 161.976562 C 147.796875 161.128906 147.03125 160.539062 146.152344 160.527344 C 145.269531 160.613281 144.496094 161.089844 144.25 161.929688 C 143.832031 163.339844 142.589844 163.921875 141.617188 163.792969 C 140.175781 163.679688 139.179688 162.4375 138.933594 160.476562 C 138.636719 158.113281 139.800781 156.046875 142.019531 154.96875 C 144.011719 154.035156 147.214844 153.894531 150.191406 156.28125 C 154.644531 159.886719 155.4375 166.996094 152.007812 172.460938 C 150.351562 175.054688 147.933594 177.074219 144.828125 178.464844 C 133.910156 183.285156 120.726562 176.6875 112.019531 168.875 C 112.011719 168.871094 112.007812 168.863281 112 168.859375 C 112 168.855469 111.996094 168.855469 111.996094 168.851562 C 111.992188 168.847656 111.984375 168.839844 111.976562 168.832031 C 111.976562 168.832031 111.972656 168.832031 111.972656 168.832031 C 111.414062 168.3125 110.890625 167.785156 110.296875 167.191406 C 110.296875 167.191406 110.292969 167.1875 110.289062 167.183594 C 110.285156 167.179688 110.269531 167.167969 110.257812 167.15625 C 109.527344 166.453125 108.816406 165.699219 108.105469 164.929688 C 109.378906 161.726562 109.4375 157.9375 108.339844 153.933594 Z M 192.195312 125.261719 C 188.984375 119.667969 184.878906 116.066406 181.132812 113.773438 C 186.304688 113.859375 192.910156 115.570312 196.167969 120.097656 C 194.34375 121.453125 192.972656 123.25 192.195312 125.261719 Z M 174.503906 110.703125 C 167.96875 108.527344 160.917969 108.609375 156.378906 110.953125 C 154.253906 112.046875 152.863281 113.570312 152.363281 115.347656 C 152.191406 115.964844 152.328125 116.632812 152.734375 117.121094 C 153.046875 117.507812 153.484375 117.75 153.96875 117.828125 C 154.269531 118.210938 154.761719 119.394531 154.582031 120.820312 C 154.410156 122.191406 153.679688 123.171875 152.421875 123.746094 C 150.324219 124.699219 148.707031 123.933594 147.722656 123.125 C 145.734375 121.507812 144.191406 117.828125 145.222656 113.25 C 146.714844 106.554688 151.53125 103.074219 155.3125 101.332031 C 161.785156 98.355469 170.234375 98.183594 175.421875 100.941406 C 175.867188 101.183594 176.394531 101.230469 176.886719 101.09375 C 184.957031 98.734375 194.425781 100.25 202.1875 105.132812 C 207.84375 108.695312 212.027344 113.726562 214.339844 119.597656 C 209.953125 117.140625 204.75 116.929688 201.601562 117.65625 C 200.90625 117.8125 200.253906 118.007812 199.636719 118.230469 C 194.203125 110.167969 180.972656 108.511719 174.503906 110.703125 Z M 128.984375 41.851562 C 171.054688 41.851562 206.097656 71.367188 214.257812 111.257812 C 211.660156 107.554688 208.300781 104.351562 204.277344 101.8125 C 195.824219 96.492188 185.519531 94.757812 176.542969 97.117188 C 170.273438 94.160156 161.007812 94.394531 153.671875 97.769531 C 149.085938 99.878906 143.234375 104.132812 141.390625 112.390625 C 140.167969 117.851562 141.675781 123.257812 145.242188 126.171875 C 147.808594 128.261719 151.015625 128.683594 154.039062 127.320312 C 158.125 125.472656 159.105469 121.308594 158.269531 118.007812 C 157.984375 116.886719 157.519531 115.949219 156.941406 115.261719 C 157.265625 114.96875 157.683594 114.691406 158.175781 114.4375 C 161.273438 112.839844 167.328125 112.28125 173.882812 114.632812 C 177.765625 116.003906 183.835938 119.207031 188.28125 126.40625 C 181.824219 122.226562 173.355469 121.28125 165.960938 124.644531 C 159.632812 127.492188 157.089844 131.753906 156.074219 134.832031 C 155.3125 137.136719 155.152344 139.632812 155.535156 142.054688 C 152.40625 140.609375 148.988281 140.15625 145.707031 140.863281 C 140.613281 135.316406 131.703125 135.367188 125.582031 139.007812 C 122.933594 137.582031 114.28125 132.414062 98.230469 118.292969 C 98.171875 118.242188 98.109375 118.203125 98.050781 118.164062 C 93.71875 114.355469 89 110.015625 84.015625 105.246094 C 80.054688 101.433594 63.328125 102.414062 60.039062 105.097656 C 56.898438 107.636719 53.816406 110.386719 50.835938 113.054688 C 47.894531 115.679688 45.070312 118.199219 42.277344 120.453125 C 46.558594 76.042969 83.835938 41.851562 128.984375 41.851562 Z M 93.757812 119.601562 C 93.265625 120.195312 92.988281 120.816406 92.839844 121.347656 C 92.71875 121.769531 92.675781 122.214844 92.660156 122.671875 C 90.515625 121.28125 88.195312 120.328125 85.953125 120.4375 C 84.503906 120.519531 83.214844 121.058594 82.140625 121.988281 C 79.371094 118.132812 76.570312 116.25 73.621094 116.25 L 73.5625 116.25 C 71.03125 116.273438 68.667969 117.652344 66.410156 120.457031 C 65.902344 119.945312 65.289062 119.542969 64.582031 119.289062 C 61.503906 118.179688 57.328125 119.757812 52.875 123.628906 C 52.109375 122.820312 51.105469 122.28125 49.898438 122.070312 C 48.75 121.867188 47.464844 121.996094 46.167969 122.335938 C 48.558594 120.34375 50.964844 118.199219 53.449219 115.976562 C 56.394531 113.34375 59.4375 110.628906 62.511719 108.140625 C 64.644531 106.402344 79.09375 105.957031 81.300781 108.078125 C 85.6875 112.273438 89.855469 116.121094 93.757812 119.601562 Z M 41.855469 129.109375 C 43.339844 127.539062 47.117188 125.578125 49.222656 125.933594 C 49.550781 125.992188 49.832031 126.101562 50.0625 126.351562 C 48.523438 127.964844 46.976562 129.835938 45.441406 131.953125 C 44.804688 132.832031 45.003906 134.0625 45.882812 134.695312 C 46.230469 134.949219 46.632812 135.0625 47.03125 135.0625 C 47.640625 135.0625 48.238281 134.785156 48.625 134.25 C 50.359375 131.847656 52.109375 129.78125 53.828125 128.101562 C 58.160156 123.789062 61.746094 122.429688 63.234375 122.972656 C 63.421875 123.042969 63.988281 123.25 64.101562 124.5625 C 64.175781 125.410156 64.789062 126.109375 65.613281 126.308594 C 66.457031 126.511719 67.300781 126.140625 67.738281 125.410156 C 69.800781 122 71.824219 120.1875 73.59375 120.171875 L 73.617188 120.171875 C 75.46875 120.171875 77.664062 122.117188 79.976562 125.804688 C 80.765625 127.035156 81.515625 128.394531 82.222656 129.84375 C 82.699219 130.820312 83.886719 131.21875 84.847656 130.75 C 85.824219 130.273438 86.226562 129.101562 85.75 128.128906 C 85.285156 127.175781 84.800781 126.269531 84.296875 125.394531 C 84.816406 124.738281 85.417969 124.398438 86.175781 124.355469 C 88.703125 124.195312 92.691406 126.941406 96.628906 131.480469 C 96.628906 131.484375 96.632812 131.488281 96.636719 131.488281 C 96.640625 131.496094 96.644531 131.5 96.648438 131.507812 C 96.976562 131.875 97.300781 132.273438 97.632812 132.671875 L 97.65625 132.703125 C 98.039062 133.171875 98.59375 133.410156 99.152344 133.410156 C 99.59375 133.410156 100.039062 133.261719 100.40625 132.953125 C 101.238281 132.269531 101.351562 131.019531 100.664062 130.179688 C 100.296875 129.738281 99.933594 129.296875 99.65625 128.992188 C 97 125.585938 96.355469 123.320312 96.613281 122.417969 C 96.628906 122.363281 96.652344 122.277344 96.71875 122.179688 C 110.21875 133.96875 118.398438 139.382812 122.246094 141.636719 C 119.734375 144.226562 118.347656 147.53125 118.316406 151.210938 C 118.285156 154.613281 119.625 157.445312 121.976562 158.976562 C 124.011719 160.292969 126.503906 160.453125 128.789062 159.421875 C 131.199219 158.367188 132.378906 155.5625 132.304688 153.332031 C 132.269531 152.199219 131.921875 151.214844 131.339844 150.476562 C 132.207031 149.121094 133.820312 149.03125 134.421875 149.082031 C 136.179688 149.152344 138.199219 150.226562 138.964844 152.21875 C 136.082031 154.203125 134.601562 157.429688 135.042969 160.960938 C 135.613281 165.597656 138.761719 167.492188 141.289062 167.703125 C 141.582031 167.726562 141.867188 167.738281 142.144531 167.722656 C 139.660156 169.679688 135.308594 170.773438 130.839844 168.917969 C 123.300781 165.765625 117.789062 159.140625 112.925781 153.296875 C 109.328125 148.976562 106.210938 145.242188 102.71875 143.335938 C 94.496094 133.914062 79.019531 129.847656 64.105469 132.761719 C 64.746094 131.792969 65.140625 131.113281 65.171875 131.050781 C 65.707031 130.109375 65.378906 128.914062 64.4375 128.375 C 63.492188 127.84375 62.292969 128.167969 61.761719 129.113281 C 61.742188 129.140625 60.046875 132.101562 57.828125 134.429688 C 52.421875 136.253906 47.417969 138.960938 42.898438 142.492188 C 42.21875 138.148438 41.863281 133.667969 41.855469 129.109375 Z M 46.558594 157.257812 C 45.382812 153.855469 44.433594 150.386719 43.707031 146.894531 C 48.410156 142.890625 53.71875 139.886719 59.523438 137.988281 C 74.574219 133.074219 92 136.632812 100.058594 146.253906 C 100.058594 146.261719 100.066406 146.265625 100.074219 146.273438 C 100.078125 146.273438 100.082031 146.28125 100.085938 146.285156 C 100.777344 147.078125 101.414062 147.976562 101.984375 148.957031 C 106.796875 157.261719 105.039062 162.496094 104.0625 164.363281 C 104.046875 164.394531 104.042969 164.425781 104.027344 164.457031 C 103.421875 165.585938 102.554688 166.503906 101.585938 167.027344 C 100.875 167.40625 99.765625 167.765625 98.511719 167.289062 C 96.140625 166.359375 95.914062 164.179688 96.152344 163.039062 C 96.191406 162.875 96.574219 161.550781 97.527344 161.464844 C 97.546875 161.464844 97.5625 161.460938 97.585938 161.457031 C 97.597656 161.460938 97.609375 161.460938 97.621094 161.460938 C 97.628906 161.460938 97.632812 161.464844 97.636719 161.464844 C 97.707031 161.464844 97.769531 161.453125 97.835938 161.445312 C 97.902344 161.4375 97.96875 161.4375 98.03125 161.429688 C 99.09375 161.210938 99.777344 160.171875 99.5625 159.109375 C 98.207031 152.492188 92.929688 147.535156 85.085938 145.511719 C 74.46875 142.753906 58.316406 145.417969 46.558594 157.257812 Z M 87.226562 161.789062 C 83.757812 158.707031 79.433594 156.757812 74.761719 156.015625 C 81.386719 154.890625 87.9375 156 93.71875 159.335938 C 93.054688 160.097656 92.554688 161.074219 92.3125 162.238281 C 91.675781 165.28125 92.894531 169.300781 97.105469 170.949219 C 97.957031 171.273438 98.839844 171.429688 99.734375 171.429688 C 100.132812 171.429688 100.527344 171.390625 100.925781 171.324219 C 101.21875 173.855469 101.078125 176.269531 100.5 178.382812 C 99.722656 181.078125 98.335938 183.121094 96.382812 184.441406 C 95.128906 185.289062 93.671875 185.8125 92.007812 186.003906 C 89.375 186.351562 86.957031 185.210938 85.792969 183.074219 C 85.335938 182.289062 84.890625 181.039062 85.382812 179.53125 C 85.992188 177.644531 87.382812 177.546875 87.792969 177.605469 C 88.410156 177.640625 89.191406 177.972656 89.359375 178.804688 C 89.542969 179.710938 90.332031 180.367188 91.257812 180.375 C 92.144531 180.195312 92.988281 179.753906 93.195312 178.855469 C 94.601562 172.746094 92.371094 166.367188 87.226562 161.789062 Z M 48.09375 161.378906 C 58.410156 150.023438 73.882812 146.671875 84.105469 149.3125 C 88.113281 150.34375 91.222656 152.195312 93.25 154.695312 C 83.023438 149.953125 70.808594 150.894531 60.042969 157.597656 C 60.039062 157.601562 60.027344 157.601562 60.019531 157.609375 C 60.011719 157.613281 60.007812 157.621094 60 157.625 C 59.984375 157.632812 59.972656 157.640625 59.957031 157.648438 C 59.953125 157.648438 59.953125 157.652344 59.949219 157.652344 C 59.929688 157.667969 59.902344 157.671875 59.878906 157.6875 C 56.320312 159.921875 53.039062 162.695312 50.078125 165.945312 C 49.355469 164.414062 48.691406 162.890625 48.09375 161.378906 Z M 54.179688 173.640625 C 53.457031 172.441406 52.726562 171.144531 51.96875 169.722656 C 54.914062 166.285156 58.226562 163.382812 61.839844 161.09375 C 71.71875 157.625 80.074219 160.679688 84.617188 164.71875 C 87.585938 167.359375 89.316406 170.609375 89.640625 174.003906 C 89.128906 173.828125 88.582031 173.722656 88.019531 173.6875 C 85.179688 173.519531 82.621094 175.339844 81.652344 178.3125 C 81.148438 179.851562 81.125 181.457031 81.535156 182.96875 C 80.589844 183.195312 79.730469 183.144531 79.011719 182.816406 C 78.980469 182.796875 78.953125 182.785156 78.921875 182.769531 C 77.660156 182.121094 76.855469 180.617188 76.96875 179.070312 C 77.035156 178.175781 77.472656 176.558594 79.710938 175.851562 C 80.269531 175.675781 80.722656 175.257812 80.945312 174.714844 C 81.160156 174.171875 81.125 173.554688 80.847656 173.042969 C 78.964844 169.59375 75.097656 167.472656 70.230469 167.226562 C 65.25 166.980469 58.679688 168.902344 54.179688 173.640625 Z M 56.363281 177.089844 C 59.964844 172.707031 65.6875 170.921875 70.035156 171.148438 C 72.5625 171.273438 74.671875 172.039062 76.101562 173.308594 C 74.316406 174.589844 73.21875 176.511719 73.050781 178.789062 C 73.027344 179.199219 73.03125 179.601562 73.058594 180.003906 C 67.59375 177.941406 62.441406 177.507812 57.449219 178.683594 C 57.078125 178.164062 56.71875 177.632812 56.363281 177.089844 Z M 60.691406 183.019531 C 69.035156 184.6875 77.695312 194.71875 84.871094 203.011719 C 85.488281 203.726562 86.097656 204.425781 86.699219 205.121094 C 76.695312 199.570312 67.863281 192.074219 60.691406 183.019531 Z M 96.535156 209.828125 C 93.976562 207.535156 90.996094 204.09375 87.835938 200.441406 C 82.632812 194.425781 76.675781 187.550781 70.328125 183.203125 C 72.535156 183.917969 74.816406 184.945312 77.179688 186.285156 C 82.695312 189.402344 88.765625 194.234375 96.277344 201.480469 C 102.292969 207.296875 107.726562 211.601562 112.921875 214.589844 C 107.332031 213.550781 101.855469 211.960938 96.535156 209.828125 Z M 133.109375 215.972656 L 133.109375 215.964844 C 132.527344 215.996094 131.898438 216.03125 131.21875 216.039062 L 131.207031 216.039062 C 121.085938 215.902344 111.457031 210.703125 99 198.664062 C 95.40625 195.191406 92.121094 192.257812 89.050781 189.777344 C 89.710938 189.902344 90.382812 189.988281 91.078125 189.988281 C 91.539062 189.988281 92.007812 189.960938 92.484375 189.898438 C 94.226562 189.699219 95.835938 189.207031 97.296875 188.449219 C 98.246094 189.246094 99.476562 190.328125 100.949219 191.625 C 106.386719 196.40625 115.480469 204.410156 124.601562 210.449219 L 125 210.714844 C 127.878906 212.636719 130.679688 214.503906 133.488281 215.964844 C 133.375 215.964844 133.25 215.96875 133.109375 215.972656 Z M 143.316406 214.894531 C 138.234375 214.828125 133.105469 211.410156 127.171875 207.453125 L 126.777344 207.183594 C 117.867188 201.285156 109.246094 193.699219 103.542969 188.679688 C 102.394531 187.667969 101.390625 186.785156 100.539062 186.054688 C 101.648438 184.929688 102.574219 183.585938 103.292969 182.054688 C 110.175781 187.34375 121.464844 195.824219 131.589844 202.535156 C 139.945312 208.070312 147.292969 211.34375 153.933594 212.429688 C 150.460938 213.472656 146.914062 214.300781 143.316406 214.894531 Z M 168.867188 206.382812 C 168.859375 206.390625 168.851562 206.394531 168.839844 206.394531 C 168.824219 206.402344 168.808594 206.414062 168.796875 206.421875 C 168.722656 206.464844 168.648438 206.5 168.578125 206.542969 C 168.226562 206.738281 167.871094 206.917969 167.519531 207.09375 C 167.40625 207.140625 167.277344 207.203125 167.257812 207.210938 C 158.300781 210.996094 147.65625 208.476562 133.761719 199.261719 C 123.171875 192.246094 111.273438 183.253906 104.589844 178.101562 C 105.105469 175.496094 105.128906 172.632812 104.664062 169.695312 C 105.144531 169.324219 105.582031 168.886719 105.996094 168.421875 C 106.480469 168.929688 106.96875 169.429688 107.464844 169.910156 C 107.53125 169.984375 107.597656 170.054688 107.675781 170.117188 C 108.207031 170.648438 108.738281 171.179688 109.304688 171.707031 C 109.3125 171.714844 109.320312 171.722656 109.328125 171.730469 C 111.355469 173.617188 113.292969 175.265625 115.257812 176.78125 C 115.3125 176.828125 115.351562 176.867188 115.414062 176.914062 C 134.5 194.183594 148.644531 202.984375 159.929688 204.601562 C 161.304688 204.800781 162.566406 204.890625 163.722656 204.886719 C 169.578125 204.886719 172.757812 202.582031 174.429688 200.550781 C 173.476562 202.710938 171.734375 204.851562 168.867188 206.382812 Z M 178.613281 200.53125 C 179.210938 198.605469 179.386719 196.71875 179.238281 195.101562 C 178.886719 191.15625 176.789062 188.1875 173.707031 187.15625 C 173.683594 187.148438 173.660156 187.136719 173.640625 187.128906 C 173.640625 187.128906 173.636719 187.128906 173.636719 187.128906 C 172.476562 186.707031 171.121094 186.582031 169.703125 186.789062 C 168.96875 186.898438 168.355469 187.40625 168.121094 188.109375 C 167.890625 188.816406 168.074219 189.597656 168.597656 190.121094 C 169.109375 190.636719 169.066406 191.492188 168.796875 192.109375 C 168.585938 192.578125 167.988281 193.613281 166.128906 193.601562 C 164.382812 193.507812 163.035156 191.734375 162.917969 189.339844 C 162.824219 188.027344 163.171875 186.652344 163.871094 185.496094 C 164.175781 185.132812 164.433594 184.785156 164.628906 184.453125 L 165.035156 184.015625 C 168.628906 180.496094 175.28125 179.871094 180.503906 182.554688 C 180.558594 182.585938 180.617188 182.601562 180.671875 182.621094 C 183.375 184.035156 186.804688 186.886719 188.464844 192.566406 C 185.363281 195.472656 182.078125 198.132812 178.613281 200.53125 Z M 191.515625 189.476562 C 190.074219 185.832031 187.800781 182.8125 184.851562 180.648438 C 202.109375 166.5625 200.515625 147.675781 197.480469 138.421875 C 197.511719 138.4375 197.539062 138.449219 197.574219 138.460938 C 200.921875 139.992188 203.433594 144.128906 204.464844 149.8125 C 206.386719 160.445312 203.097656 176.402344 191.515625 189.476562 Z M 210.191406 160.414062 C 210.175781 160.460938 210.167969 160.515625 210.160156 160.566406 C 209.414062 162.492188 208.597656 164.378906 207.726562 166.226562 C 209.085938 159.960938 209.210938 154.023438 208.320312 149.117188 C 207.445312 144.253906 205.636719 140.347656 203.089844 137.695312 C 204.066406 137.15625 204.933594 136.378906 205.570312 135.394531 C 206.464844 134.023438 206.753906 132.519531 206.460938 131.097656 C 206.84375 131.242188 207.171875 131.449219 207.382812 131.589844 C 210.585938 133.816406 215.304688 142.707031 210.191406 160.414062 Z M 209.617188 128.367188 C 207.15625 126.667969 204.378906 126.535156 202.355469 128.039062 C 201.910156 128.371094 201.621094 128.875 201.570312 129.433594 C 201.523438 129.988281 201.710938 130.542969 202.089844 130.949219 C 202.75 131.65625 202.816406 132.4375 202.28125 133.253906 C 201.679688 134.1875 200.371094 134.933594 199.101562 134.507812 C 196.914062 133.753906 195.5625 131.980469 195.394531 129.628906 C 195.1875 126.746094 196.882812 123.941406 199.753906 122.46875 C 200.550781 122.042969 201.4375 121.714844 202.46875 121.480469 C 206.101562 120.640625 212.769531 121.636719 216.019531 126.257812 C 216.054688 127.167969 216.082031 128.0625 216.082031 128.984375 C 216.082031 132.21875 215.886719 135.414062 215.539062 138.578125 C 214.429688 133.691406 212.261719 130.203125 209.617188 128.367188 Z M 104.402344 138.34375 C 104.761719 138.621094 105.179688 138.753906 105.605469 138.753906 C 106.1875 138.753906 106.769531 138.492188 107.152344 137.992188 C 107.816406 137.136719 107.660156 135.902344 106.800781 135.238281 C 106.445312 134.964844 106.238281 134.761719 106.195312 134.726562 C 105.441406 133.980469 104.207031 133.980469 103.445312 134.734375 C 102.675781 135.5 102.671875 136.742188 103.429688 137.507812 C 103.429688 137.507812 103.773438 137.855469 104.402344 138.34375 " fill-opacity="1" fill-rule="nonzero"/></g><g fill="#000000" fill-opacity="1"><g transform="translate(86.449571, 38.867586)"><g><path d="M 0.9375 -1.921875 L -2.828125 -11.421875 C -2.972656 -11.796875 -2.96875 -12.164062 -2.8125 -12.53125 C -2.65625 -12.894531 -2.394531 -13.148438 -2.03125 -13.296875 L 2.296875 -15.015625 C 2.796875 -15.210938 3.304688 -15.347656 3.828125 -15.421875 C 4.359375 -15.492188 4.859375 -15.476562 5.328125 -15.375 C 5.796875 -15.28125 6.226562 -15.078125 6.625 -14.765625 C 7.019531 -14.460938 7.332031 -14.023438 7.5625 -13.453125 L 7.578125 -13.421875 C 7.847656 -12.734375 7.910156 -12.117188 7.765625 -11.578125 C 7.617188 -11.035156 7.367188 -10.5625 7.015625 -10.15625 C 7.835938 -10.164062 8.539062 -10.023438 9.125 -9.734375 C 9.707031 -9.441406 10.160156 -8.890625 10.484375 -8.078125 L 10.5 -8.03125 C 10.71875 -7.476562 10.800781 -6.945312 10.75 -6.4375 C 10.707031 -5.9375 10.539062 -5.46875 10.25 -5.03125 C 9.957031 -4.59375 9.554688 -4.191406 9.046875 -3.828125 C 8.546875 -3.460938 7.953125 -3.144531 7.265625 -2.875 L 2.796875 -1.109375 C 2.429688 -0.960938 2.066406 -0.96875 1.703125 -1.125 C 1.335938 -1.28125 1.082031 -1.546875 0.9375 -1.921875 Z M 2.078125 -6.671875 L 3.140625 -3.984375 L 6.328125 -5.234375 C 6.921875 -5.472656 7.34375 -5.765625 7.59375 -6.109375 C 7.851562 -6.453125 7.894531 -6.851562 7.71875 -7.3125 L 7.703125 -7.34375 C 7.546875 -7.75 7.257812 -8.007812 6.84375 -8.125 C 6.425781 -8.25 5.867188 -8.171875 5.171875 -7.890625 Z M 1.203125 -8.890625 L 3.671875 -9.859375 C 4.265625 -10.097656 4.691406 -10.382812 4.953125 -10.71875 C 5.222656 -11.0625 5.269531 -11.460938 5.09375 -11.921875 L 5.078125 -11.9375 C 4.921875 -12.34375 4.648438 -12.59375 4.265625 -12.6875 C 3.878906 -12.78125 3.398438 -12.71875 2.828125 -12.5 L 0.1875 -11.453125 Z M 1.203125 -8.890625 "/></g></g></g><g fill="#000000" fill-opacity="1"><g transform="translate(101.605602, 33.095082)"><g><path d="M -0.921875 -11.734375 C -1.003906 -12.117188 -0.941406 -12.476562 -0.734375 -12.8125 C -0.523438 -13.15625 -0.222656 -13.367188 0.171875 -13.453125 L 4.609375 -14.421875 C 5.296875 -14.566406 5.953125 -14.617188 6.578125 -14.578125 C 7.203125 -14.535156 7.769531 -14.382812 8.28125 -14.125 C 8.789062 -13.863281 9.226562 -13.5 9.59375 -13.03125 C 9.957031 -12.5625 10.21875 -11.960938 10.375 -11.234375 L 10.375 -11.203125 C 10.601562 -10.179688 10.550781 -9.304688 10.21875 -8.578125 C 9.894531 -7.847656 9.375 -7.238281 8.65625 -6.75 L 11.125 -4.796875 C 11.300781 -4.648438 11.445312 -4.503906 11.5625 -4.359375 C 11.6875 -4.222656 11.769531 -4.039062 11.8125 -3.8125 C 11.90625 -3.425781 11.835938 -3.082031 11.609375 -2.78125 C 11.378906 -2.476562 11.097656 -2.289062 10.765625 -2.21875 C 10.453125 -2.15625 10.171875 -2.164062 9.921875 -2.25 C 9.671875 -2.34375 9.4375 -2.476562 9.21875 -2.65625 L 5.71875 -5.546875 L 3.46875 -5.046875 L 4.078125 -2.234375 C 4.160156 -1.847656 4.09375 -1.488281 3.875 -1.15625 C 3.65625 -0.820312 3.351562 -0.613281 2.96875 -0.53125 C 2.570312 -0.445312 2.207031 -0.507812 1.875 -0.71875 C 1.550781 -0.9375 1.347656 -1.238281 1.265625 -1.625 Z M 2.125 -11.21875 L 2.921875 -7.53125 L 5.765625 -8.15625 C 6.472656 -8.3125 6.976562 -8.59375 7.28125 -9 C 7.582031 -9.40625 7.671875 -9.878906 7.546875 -10.421875 L 7.546875 -10.46875 C 7.410156 -11.09375 7.113281 -11.515625 6.65625 -11.734375 C 6.195312 -11.953125 5.617188 -11.984375 4.921875 -11.828125 Z M 2.125 -11.21875 "/></g></g></g><g fill="#000000" fill-opacity="1"><g transform="translate(117.753906, 30.024127)"><g><path d="M 0.71875 -11.875 C 0.675781 -12.28125 0.78125 -12.632812 1.03125 -12.9375 C 1.289062 -13.238281 1.617188 -13.40625 2.015625 -13.4375 C 2.421875 -13.46875 2.773438 -13.359375 3.078125 -13.109375 C 3.378906 -12.859375 3.550781 -12.53125 3.59375 -12.125 L 4.46875 -1.71875 C 4.5 -1.320312 4.382812 -0.96875 4.125 -0.65625 C 3.875 -0.351562 3.546875 -0.1875 3.140625 -0.15625 C 2.742188 -0.125 2.394531 -0.234375 2.09375 -0.484375 C 1.789062 -0.742188 1.625 -1.070312 1.59375 -1.46875 Z M 0.71875 -11.875 "/></g></g></g><g fill="#000000" fill-opacity="1"><g transform="translate(126.897606, 29.164716)"><g><path d="M 8.53125 -12.921875 C 9.53125 -12.867188 10.375 -12.722656 11.0625 -12.484375 C 11.75 -12.242188 12.375 -11.890625 12.9375 -11.421875 C 13.070312 -11.316406 13.203125 -11.160156 13.328125 -10.953125 C 13.453125 -10.753906 13.503906 -10.515625 13.484375 -10.234375 C 13.472656 -9.828125 13.320312 -9.492188 13.03125 -9.234375 C 12.738281 -8.984375 12.390625 -8.867188 11.984375 -8.890625 C 11.773438 -8.898438 11.601562 -8.9375 11.46875 -9 C 11.332031 -9.070312 11.21875 -9.144531 11.125 -9.21875 C 10.738281 -9.519531 10.332031 -9.757812 9.90625 -9.9375 C 9.476562 -10.125 8.945312 -10.234375 8.3125 -10.265625 C 7.78125 -10.285156 7.285156 -10.195312 6.828125 -10 C 6.367188 -9.8125 5.957031 -9.539062 5.59375 -9.1875 C 5.226562 -8.84375 4.9375 -8.425781 4.71875 -7.9375 C 4.5 -7.457031 4.375 -6.9375 4.34375 -6.375 L 4.34375 -6.34375 C 4.3125 -5.75 4.378906 -5.191406 4.546875 -4.671875 C 4.710938 -4.160156 4.960938 -3.707031 5.296875 -3.3125 C 5.640625 -2.925781 6.046875 -2.613281 6.515625 -2.375 C 6.992188 -2.144531 7.519531 -2.015625 8.09375 -1.984375 C 9.175781 -1.929688 10.09375 -2.148438 10.84375 -2.640625 L 10.9375 -4.515625 L 8.984375 -4.625 C 8.628906 -4.632812 8.335938 -4.765625 8.109375 -5.015625 C 7.890625 -5.265625 7.785156 -5.5625 7.796875 -5.90625 C 7.816406 -6.25 7.953125 -6.535156 8.203125 -6.765625 C 8.460938 -6.992188 8.769531 -7.101562 9.125 -7.09375 L 12.421875 -6.921875 C 12.816406 -6.898438 13.144531 -6.738281 13.40625 -6.4375 C 13.675781 -6.144531 13.800781 -5.800781 13.78125 -5.40625 L 13.625 -2.234375 C 13.582031 -1.421875 13.21875 -0.828125 12.53125 -0.453125 C 11.96875 -0.148438 11.296875 0.113281 10.515625 0.34375 C 9.734375 0.582031 8.847656 0.675781 7.859375 0.625 C 6.828125 0.570312 5.90625 0.359375 5.09375 -0.015625 C 4.28125 -0.398438 3.582031 -0.90625 3 -1.53125 C 2.414062 -2.15625 1.976562 -2.890625 1.6875 -3.734375 C 1.394531 -4.585938 1.273438 -5.492188 1.328125 -6.453125 L 1.328125 -6.5 C 1.378906 -7.4375 1.59375 -8.300781 1.96875 -9.09375 C 2.351562 -9.894531 2.867188 -10.585938 3.515625 -11.171875 C 4.160156 -11.753906 4.910156 -12.203125 5.765625 -12.515625 C 6.617188 -12.835938 7.539062 -12.972656 8.53125 -12.921875 Z M 8.53125 -12.921875 "/></g></g></g><g fill="#000000" fill-opacity="1"><g transform="translate(144.185705, 30.291568)"><g><path d="M 1.828125 -0.953125 L 4.140625 -11.140625 C 4.234375 -11.535156 4.445312 -11.835938 4.78125 -12.046875 C 5.113281 -12.253906 5.472656 -12.3125 5.859375 -12.21875 C 6.242188 -12.132812 6.546875 -11.925781 6.765625 -11.59375 C 6.984375 -11.257812 7.046875 -10.894531 6.953125 -10.5 L 6.09375 -6.734375 L 11.28125 -5.546875 L 12.140625 -9.3125 C 12.234375 -9.707031 12.445312 -10.007812 12.78125 -10.21875 C 13.113281 -10.425781 13.472656 -10.488281 13.859375 -10.40625 C 14.253906 -10.3125 14.5625 -10.097656 14.78125 -9.765625 C 15 -9.429688 15.0625 -9.066406 14.96875 -8.671875 L 12.65625 1.515625 C 12.5625 1.898438 12.34375 2.195312 12 2.40625 C 11.664062 2.625 11.300781 2.6875 10.90625 2.59375 C 10.519531 2.507812 10.21875 2.296875 10 1.953125 C 9.789062 1.617188 9.734375 1.257812 9.828125 0.875 L 10.703125 -2.96875 L 5.515625 -4.15625 L 4.640625 -0.3125 C 4.546875 0.0703125 4.328125 0.367188 3.984375 0.578125 C 3.648438 0.796875 3.289062 0.863281 2.90625 0.78125 C 2.519531 0.6875 2.21875 0.46875 2 0.125 C 1.789062 -0.207031 1.734375 -0.566406 1.828125 -0.953125 Z M 1.828125 -0.953125 "/></g></g></g><g fill="#000000" fill-opacity="1"><g transform="translate(160.638858, 34.341546)"><g><path d="M 4.90625 -10.71875 C 5.050781 -11.0625 5.289062 -11.304688 5.625 -11.453125 C 5.957031 -11.597656 6.289062 -11.597656 6.625 -11.453125 L 14.4375 -8.3125 C 14.78125 -8.164062 15.023438 -7.925781 15.171875 -7.59375 C 15.316406 -7.257812 15.316406 -6.921875 15.171875 -6.578125 C 15.035156 -6.242188 14.800781 -6 14.46875 -5.84375 C 14.132812 -5.695312 13.796875 -5.695312 13.453125 -5.84375 L 10.890625 -6.875 L 7.46875 1.578125 C 7.320312 1.941406 7.0625 2.203125 6.6875 2.359375 C 6.320312 2.515625 5.953125 2.515625 5.578125 2.359375 C 5.210938 2.210938 4.953125 1.957031 4.796875 1.59375 C 4.640625 1.226562 4.632812 0.863281 4.78125 0.5 L 8.203125 -7.953125 L 5.640625 -8.984375 C 5.304688 -9.128906 5.066406 -9.367188 4.921875 -9.703125 C 4.773438 -10.046875 4.769531 -10.382812 4.90625 -10.71875 Z M 4.90625 -10.71875 "/></g></g></g><g fill="#000000" fill-opacity="1"><g transform="translate(74.126208, 225.492529)"><g><path d="M 11.21875 -7.34375 C 11.988281 -6.96875 12.59375 -6.5625 13.03125 -6.125 C 13.476562 -5.6875 13.835938 -5.195312 14.109375 -4.65625 C 14.191406 -4.5 14.234375 -4.320312 14.234375 -4.125 C 14.242188 -3.925781 14.203125 -3.734375 14.109375 -3.546875 C 13.953125 -3.234375 13.71875 -3.023438 13.40625 -2.921875 C 13.09375 -2.816406 12.78125 -2.84375 12.46875 -3 C 12.3125 -3.070312 12.191406 -3.160156 12.109375 -3.265625 C 12.023438 -3.367188 11.957031 -3.460938 11.90625 -3.546875 C 11.707031 -3.929688 11.472656 -4.269531 11.203125 -4.5625 C 10.929688 -4.863281 10.59375 -5.113281 10.1875 -5.3125 C 9.757812 -5.519531 9.320312 -5.628906 8.875 -5.640625 C 8.425781 -5.648438 8 -5.578125 7.59375 -5.421875 C 7.1875 -5.265625 6.816406 -5.023438 6.484375 -4.703125 C 6.148438 -4.390625 5.875 -4.015625 5.65625 -3.578125 L 5.640625 -3.546875 C 5.421875 -3.109375 5.289062 -2.660156 5.25 -2.203125 C 5.207031 -1.753906 5.238281 -1.316406 5.34375 -0.890625 C 5.457031 -0.472656 5.65625 -0.09375 5.9375 0.25 C 6.21875 0.601562 6.578125 0.890625 7.015625 1.109375 C 7.492188 1.347656 7.9375 1.484375 8.34375 1.515625 C 8.75 1.546875 9.175781 1.507812 9.625 1.40625 C 9.90625 1.332031 10.171875 1.359375 10.421875 1.484375 C 10.703125 1.628906 10.894531 1.851562 11 2.15625 C 11.101562 2.457031 11.082031 2.75 10.9375 3.03125 C 10.851562 3.195312 10.742188 3.328125 10.609375 3.421875 C 10.484375 3.523438 10.335938 3.597656 10.171875 3.640625 C 9.523438 3.847656 8.863281 3.914062 8.1875 3.84375 C 7.507812 3.78125 6.753906 3.546875 5.921875 3.140625 C 5.171875 2.765625 4.539062 2.28125 4.03125 1.6875 C 3.519531 1.101562 3.148438 0.460938 2.921875 -0.234375 C 2.691406 -0.941406 2.601562 -1.679688 2.65625 -2.453125 C 2.707031 -3.222656 2.910156 -3.972656 3.265625 -4.703125 L 3.28125 -4.71875 C 3.644531 -5.445312 4.113281 -6.0625 4.6875 -6.5625 C 5.269531 -7.070312 5.910156 -7.453125 6.609375 -7.703125 C 7.316406 -7.960938 8.0625 -8.066406 8.84375 -8.015625 C 9.632812 -7.960938 10.425781 -7.738281 11.21875 -7.34375 Z M 11.21875 -7.34375 "/></g></g></g><g fill="#000000" fill-opacity="1"><g transform="translate(87.69443, 232.02359)"><g><path d="M 10.171875 -8.828125 C 11.003906 -8.554688 11.722656 -8.160156 12.328125 -7.640625 C 12.929688 -7.117188 13.40625 -6.523438 13.75 -5.859375 C 14.101562 -5.191406 14.3125 -4.476562 14.375 -3.71875 C 14.4375 -2.957031 14.34375 -2.191406 14.09375 -1.421875 L 14.078125 -1.390625 C 13.828125 -0.617188 13.445312 0.0507812 12.9375 0.625 C 12.4375 1.207031 11.847656 1.671875 11.171875 2.015625 C 10.492188 2.359375 9.75 2.5625 8.9375 2.625 C 8.132812 2.6875 7.316406 2.582031 6.484375 2.3125 C 5.648438 2.039062 4.929688 1.644531 4.328125 1.125 C 3.722656 0.601562 3.242188 0.0078125 2.890625 -0.65625 C 2.546875 -1.320312 2.34375 -2.035156 2.28125 -2.796875 C 2.21875 -3.566406 2.3125 -4.335938 2.5625 -5.109375 L 2.578125 -5.140625 C 2.828125 -5.910156 3.203125 -6.582031 3.703125 -7.15625 C 4.210938 -7.738281 4.804688 -8.203125 5.484375 -8.546875 C 6.160156 -8.890625 6.898438 -9.09375 7.703125 -9.15625 C 8.515625 -9.21875 9.335938 -9.109375 10.171875 -8.828125 Z M 7.234375 0.15625 C 7.722656 0.3125 8.191406 0.363281 8.640625 0.3125 C 9.097656 0.257812 9.515625 0.128906 9.890625 -0.078125 C 10.273438 -0.296875 10.613281 -0.582031 10.90625 -0.9375 C 11.195312 -1.289062 11.414062 -1.703125 11.5625 -2.171875 L 11.578125 -2.203125 C 11.734375 -2.671875 11.796875 -3.132812 11.765625 -3.59375 C 11.742188 -4.0625 11.640625 -4.492188 11.453125 -4.890625 C 11.265625 -5.296875 11 -5.65625 10.65625 -5.96875 C 10.320312 -6.28125 9.910156 -6.515625 9.421875 -6.671875 C 8.953125 -6.828125 8.488281 -6.878906 8.03125 -6.828125 C 7.570312 -6.773438 7.148438 -6.644531 6.765625 -6.4375 C 6.378906 -6.226562 6.039062 -5.945312 5.75 -5.59375 C 5.457031 -5.238281 5.238281 -4.828125 5.09375 -4.359375 L 5.078125 -4.328125 C 4.921875 -3.859375 4.851562 -3.390625 4.875 -2.921875 C 4.90625 -2.460938 5.015625 -2.03125 5.203125 -1.625 C 5.390625 -1.21875 5.65625 -0.859375 6 -0.546875 C 6.34375 -0.234375 6.753906 0 7.234375 0.15625 Z M 7.234375 0.15625 "/></g></g></g><g fill="#000000" fill-opacity="1"><g transform="translate(103.828611, 237.017316)"><g><path d="M 1.53125 -0.890625 L 3.046875 -9.8125 C 3.109375 -10.144531 3.28125 -10.414062 3.5625 -10.625 C 3.84375 -10.832031 4.15625 -10.90625 4.5 -10.84375 L 4.75 -10.796875 C 5.050781 -10.742188 5.285156 -10.632812 5.453125 -10.46875 C 5.628906 -10.300781 5.78125 -10.09375 5.90625 -9.84375 L 9.609375 -2.796875 L 10.59375 -8.578125 C 10.65625 -8.910156 10.820312 -9.175781 11.09375 -9.375 C 11.363281 -9.582031 11.671875 -9.65625 12.015625 -9.59375 C 12.347656 -9.53125 12.613281 -9.359375 12.8125 -9.078125 C 13.019531 -8.804688 13.09375 -8.503906 13.03125 -8.171875 L 11.515625 0.75 C 11.453125 1.09375 11.273438 1.363281 10.984375 1.5625 C 10.703125 1.757812 10.394531 1.832031 10.0625 1.78125 L 9.984375 1.765625 C 9.679688 1.710938 9.445312 1.601562 9.28125 1.4375 C 9.113281 1.269531 8.960938 1.066406 8.828125 0.828125 L 5 -6.484375 L 3.96875 -0.484375 C 3.914062 -0.140625 3.75 0.128906 3.46875 0.328125 C 3.195312 0.523438 2.890625 0.59375 2.546875 0.53125 C 2.203125 0.46875 1.929688 0.300781 1.734375 0.03125 C 1.546875 -0.238281 1.476562 -0.546875 1.53125 -0.890625 Z M 1.53125 -0.890625 "/></g></g></g><g fill="#000000" fill-opacity="1"><g transform="translate(119.517591, 239.446666)"><g><path d="M 7.140625 -11.359375 C 7.992188 -11.328125 8.710938 -11.203125 9.296875 -10.984375 C 9.890625 -10.773438 10.425781 -10.484375 10.90625 -10.109375 C 11.039062 -9.992188 11.148438 -9.847656 11.234375 -9.671875 C 11.328125 -9.503906 11.367188 -9.3125 11.359375 -9.09375 C 11.347656 -8.75 11.222656 -8.460938 10.984375 -8.234375 C 10.742188 -8.003906 10.445312 -7.894531 10.09375 -7.90625 C 9.925781 -7.90625 9.78125 -7.9375 9.65625 -8 C 9.539062 -8.0625 9.4375 -8.117188 9.34375 -8.171875 C 9.007812 -8.441406 8.65625 -8.65625 8.28125 -8.8125 C 7.914062 -8.96875 7.507812 -9.050781 7.0625 -9.0625 C 6.582031 -9.070312 6.132812 -8.988281 5.71875 -8.8125 C 5.3125 -8.644531 4.957031 -8.398438 4.65625 -8.078125 C 4.351562 -7.765625 4.113281 -7.394531 3.9375 -6.96875 C 3.757812 -6.550781 3.664062 -6.097656 3.65625 -5.609375 L 3.65625 -5.578125 C 3.644531 -5.085938 3.710938 -4.625 3.859375 -4.1875 C 4.003906 -3.75 4.210938 -3.363281 4.484375 -3.03125 C 4.765625 -2.707031 5.101562 -2.441406 5.5 -2.234375 C 5.90625 -2.023438 6.351562 -1.914062 6.84375 -1.90625 C 7.375 -1.882812 7.832031 -1.941406 8.21875 -2.078125 C 8.601562 -2.222656 8.976562 -2.4375 9.34375 -2.71875 C 9.5625 -2.90625 9.8125 -2.992188 10.09375 -2.984375 C 10.40625 -2.972656 10.671875 -2.847656 10.890625 -2.609375 C 11.117188 -2.367188 11.226562 -2.09375 11.21875 -1.78125 C 11.21875 -1.59375 11.175781 -1.425781 11.09375 -1.28125 C 11.007812 -1.144531 10.898438 -1.019531 10.765625 -0.90625 C 10.265625 -0.457031 9.691406 -0.125 9.046875 0.09375 C 8.398438 0.320312 7.613281 0.421875 6.6875 0.390625 C 5.851562 0.359375 5.082031 0.179688 4.375 -0.140625 C 3.664062 -0.460938 3.054688 -0.894531 2.546875 -1.4375 C 2.046875 -1.976562 1.660156 -2.609375 1.390625 -3.328125 C 1.128906 -4.046875 1.007812 -4.8125 1.03125 -5.625 L 1.03125 -5.65625 C 1.050781 -6.46875 1.21875 -7.222656 1.53125 -7.921875 C 1.84375 -8.628906 2.269531 -9.242188 2.8125 -9.765625 C 3.351562 -10.285156 3.988281 -10.6875 4.71875 -10.96875 C 5.445312 -11.25 6.253906 -11.378906 7.140625 -11.359375 Z M 7.140625 -11.359375 "/></g></g></g><g fill="#000000" fill-opacity="1"><g transform="translate(134.505191, 239.669313)"><g><path d="M 1.234375 -1.390625 L 0.359375 -10.21875 C 0.328125 -10.5625 0.414062 -10.863281 0.625 -11.125 C 0.84375 -11.382812 1.125 -11.535156 1.46875 -11.578125 L 7.75 -12.203125 C 8.0625 -12.234375 8.335938 -12.148438 8.578125 -11.953125 C 8.816406 -11.765625 8.953125 -11.515625 8.984375 -11.203125 C 9.015625 -10.890625 8.929688 -10.617188 8.734375 -10.390625 C 8.535156 -10.160156 8.28125 -10.03125 7.96875 -10 L 2.921875 -9.484375 L 3.15625 -7.1875 L 7.46875 -7.625 C 7.78125 -7.65625 8.054688 -7.570312 8.296875 -7.375 C 8.535156 -7.175781 8.671875 -6.921875 8.703125 -6.609375 C 8.734375 -6.296875 8.648438 -6.023438 8.453125 -5.796875 C 8.253906 -5.566406 8 -5.4375 7.6875 -5.40625 L 3.375 -4.96875 L 3.609375 -2.578125 L 8.734375 -3.09375 C 9.046875 -3.125 9.320312 -3.046875 9.5625 -2.859375 C 9.800781 -2.671875 9.9375 -2.421875 9.96875 -2.109375 C 10 -1.796875 9.914062 -1.519531 9.71875 -1.28125 C 9.519531 -1.050781 9.265625 -0.921875 8.953125 -0.890625 L 2.59375 -0.265625 C 2.25 -0.222656 1.941406 -0.3125 1.671875 -0.53125 C 1.410156 -0.757812 1.265625 -1.046875 1.234375 -1.390625 Z M 1.234375 -1.390625 "/></g></g></g><g fill="#000000" fill-opacity="1"><g transform="translate(148.279569, 238.109728)"><g><path d="M -0.921875 -10.171875 C -0.992188 -10.503906 -0.9375 -10.816406 -0.75 -11.109375 C -0.5625 -11.410156 -0.300781 -11.597656 0.03125 -11.671875 L 3.34375 -12.421875 C 4.007812 -12.578125 4.625 -12.625 5.1875 -12.5625 C 5.75 -12.5 6.25 -12.332031 6.6875 -12.0625 C 7.132812 -11.800781 7.507812 -11.457031 7.8125 -11.03125 C 8.113281 -10.613281 8.332031 -10.117188 8.46875 -9.546875 L 8.46875 -9.515625 C 8.613281 -8.878906 8.625 -8.289062 8.5 -7.75 C 8.382812 -7.207031 8.160156 -6.726562 7.828125 -6.3125 C 7.492188 -5.894531 7.070312 -5.539062 6.5625 -5.25 C 6.0625 -4.957031 5.5 -4.742188 4.875 -4.609375 L 3.03125 -4.1875 L 3.53125 -1.984375 C 3.601562 -1.648438 3.546875 -1.335938 3.359375 -1.046875 C 3.171875 -0.753906 2.90625 -0.566406 2.5625 -0.484375 C 2.226562 -0.410156 1.914062 -0.460938 1.625 -0.640625 C 1.332031 -0.828125 1.148438 -1.085938 1.078125 -1.421875 Z M 2.53125 -6.359375 L 4.453125 -6.796875 C 5.066406 -6.929688 5.503906 -7.195312 5.765625 -7.59375 C 6.035156 -7.988281 6.117188 -8.425781 6.015625 -8.90625 L 6 -8.9375 C 5.875 -9.488281 5.601562 -9.867188 5.1875 -10.078125 C 4.769531 -10.285156 4.253906 -10.316406 3.640625 -10.171875 L 1.765625 -9.75 Z M 2.53125 -6.359375 "/></g></g></g><g fill="#000000" fill-opacity="1"><g transform="translate(161.714079, 234.86071)"><g><path d="M -3.046875 -9.765625 C -3.148438 -10.054688 -3.128906 -10.347656 -2.984375 -10.640625 C -2.847656 -10.941406 -2.632812 -11.144531 -2.34375 -11.25 L 4.53125 -13.734375 C 4.820312 -13.835938 5.113281 -13.816406 5.40625 -13.671875 C 5.707031 -13.535156 5.910156 -13.320312 6.015625 -13.03125 C 6.117188 -12.738281 6.097656 -12.445312 5.953125 -12.15625 C 5.816406 -11.863281 5.601562 -11.664062 5.3125 -11.5625 L 3.046875 -10.734375 L 5.734375 -3.296875 C 5.847656 -2.972656 5.832031 -2.648438 5.6875 -2.328125 C 5.539062 -2.015625 5.304688 -1.800781 4.984375 -1.6875 C 4.660156 -1.570312 4.34375 -1.585938 4.03125 -1.734375 C 3.71875 -1.890625 3.503906 -2.128906 3.390625 -2.453125 L 0.703125 -9.890625 L -1.5625 -9.078125 C -1.851562 -8.972656 -2.144531 -8.988281 -2.4375 -9.125 C -2.738281 -9.257812 -2.941406 -9.472656 -3.046875 -9.765625 Z M -3.046875 -9.765625 "/></g></g></g><g fill="#000000" fill-opacity="1"><g transform="translate(174.339853, 230.116454)"><g><path d="M 0.15625 -3.765625 C 0.300781 -3.835938 0.429688 -3.878906 0.546875 -3.890625 C 0.671875 -3.898438 0.785156 -3.898438 0.890625 -3.890625 C 1.421875 -3.796875 1.9375 -3.773438 2.4375 -3.828125 C 2.945312 -3.878906 3.453125 -4.03125 3.953125 -4.28125 C 4.410156 -4.507812 4.726562 -4.769531 4.90625 -5.0625 C 5.082031 -5.363281 5.09375 -5.671875 4.9375 -5.984375 L 4.921875 -6 C 4.847656 -6.144531 4.757812 -6.257812 4.65625 -6.34375 C 4.550781 -6.425781 4.394531 -6.484375 4.1875 -6.515625 C 3.988281 -6.546875 3.734375 -6.539062 3.421875 -6.5 C 3.109375 -6.457031 2.710938 -6.378906 2.234375 -6.265625 C 1.660156 -6.140625 1.125 -6.046875 0.625 -5.984375 C 0.132812 -5.921875 -0.3125 -5.929688 -0.71875 -6.015625 C -1.125 -6.097656 -1.488281 -6.269531 -1.8125 -6.53125 C -2.144531 -6.800781 -2.4375 -7.1875 -2.6875 -7.6875 L -2.703125 -7.71875 C -2.941406 -8.175781 -3.066406 -8.632812 -3.078125 -9.09375 C -3.097656 -9.5625 -3.015625 -10.007812 -2.828125 -10.4375 C -2.648438 -10.863281 -2.378906 -11.253906 -2.015625 -11.609375 C -1.660156 -11.972656 -1.222656 -12.285156 -0.703125 -12.546875 C 0.523438 -13.171875 1.75 -13.414062 2.96875 -13.28125 C 3.144531 -13.269531 3.316406 -13.210938 3.484375 -13.109375 C 3.660156 -13.015625 3.804688 -12.859375 3.921875 -12.640625 C 4.066406 -12.347656 4.085938 -12.054688 3.984375 -11.765625 C 3.878906 -11.472656 3.679688 -11.253906 3.390625 -11.109375 C 3.191406 -11.003906 2.976562 -10.957031 2.75 -10.96875 C 1.78125 -11.050781 0.953125 -10.914062 0.265625 -10.5625 C -0.171875 -10.34375 -0.453125 -10.097656 -0.578125 -9.828125 C -0.710938 -9.554688 -0.71875 -9.296875 -0.59375 -9.046875 L -0.578125 -9 C -0.492188 -8.832031 -0.390625 -8.703125 -0.265625 -8.609375 C -0.148438 -8.523438 0.015625 -8.476562 0.234375 -8.46875 C 0.453125 -8.46875 0.722656 -8.488281 1.046875 -8.53125 C 1.378906 -8.582031 1.789062 -8.660156 2.28125 -8.765625 C 2.863281 -8.890625 3.394531 -8.96875 3.875 -9 C 4.363281 -9.039062 4.804688 -9.007812 5.203125 -8.90625 C 5.597656 -8.800781 5.945312 -8.625 6.25 -8.375 C 6.550781 -8.132812 6.8125 -7.789062 7.03125 -7.34375 L 7.046875 -7.3125 C 7.304688 -6.8125 7.441406 -6.316406 7.453125 -5.828125 C 7.460938 -5.347656 7.367188 -4.890625 7.171875 -4.453125 C 6.972656 -4.023438 6.679688 -3.628906 6.296875 -3.265625 C 5.921875 -2.898438 5.453125 -2.578125 4.890625 -2.296875 C 4.234375 -1.960938 3.53125 -1.726562 2.78125 -1.59375 C 2.03125 -1.46875 1.257812 -1.46875 0.46875 -1.59375 C 0.300781 -1.613281 0.144531 -1.675781 0 -1.78125 C -0.15625 -1.894531 -0.28125 -2.035156 -0.375 -2.203125 C -0.519531 -2.492188 -0.539062 -2.789062 -0.4375 -3.09375 C -0.332031 -3.394531 -0.132812 -3.617188 0.15625 -3.765625 Z M 0.15625 -3.765625 "/></g></g></g></svg>